<?xml version="1.0" standalone="no"?>
<!DOCTYPE svg PUBLIC "-//W3C//DTD SVG 20010904//EN"
 "http://www.w3.org/TR/2001/REC-SVG-20010904/DTD/svg10.dtd">
<svg version="1.0" xmlns="http://www.w3.org/2000/svg"
 width="1024.000000pt" height="1024.000000pt" viewBox="0 0 1024.000000 1024.000000"
 preserveAspectRatio="xMidYMid meet">
<metadata>
Created by potrace 1.14, written by Peter Selinger 2001-2017
</metadata>
<g transform="translate(0.000000,1024.000000) scale(0.100000,-0.100000)"
fill="#000000" stroke="none">
<path d="M5737 9569 c-81 -19 -172 -82 -202 -139 -7 -14 -15 -41 -19 -60 l-6
-35 -102 -3 c-370 -9 -728 -121 -988 -308 l-90 -65 -50 40 c-97 77 -226 106
-340 77 -275 -71 -570 -478 -699 -968 -58 -218 -66 -282 -65 -543 0 -262 11
-357 61 -511 14 -45 23 -89 20 -98 -7 -19 -41 -21 -86 -5 -24 9 -35 9 -44 0
-9 -9 -4 -17 18 -36 l30 -24 -46 -48 c-49 -50 -129 -163 -129 -181 0 -6 14
-13 30 -17 35 -8 35 -7 15 -45 -8 -16 -25 -30 -37 -32 -17 -2 -22 -9 -21 -26
2 -13 -4 -36 -12 -53 -19 -36 -5 -46 40 -29 15 6 30 8 33 5 3 -3 0 -27 -6 -53
-19 -74 -26 -162 -14 -162 5 0 24 14 42 30 18 17 35 30 39 30 3 0 7 -35 7 -78
1 -51 10 -102 26 -153 l25 -77 -36 4 c-137 15 -232 25 -343 36 -141 13 -152
10 -163 -45 -17 -86 -70 -224 -96 -249 -27 -27 -27 -27 -73 -12 -91 31 -195
-12 -232 -95 -14 -31 -23 -41 -41 -41 -66 0 -134 -63 -149 -138 -5 -25 -16
-38 -45 -52 -148 -76 -159 -338 -19 -476 22 -22 40 -44 40 -49 0 -22 -68 -174
-97 -216 -45 -64 -69 -82 -158 -119 -308 -126 -328 -130 -617 -139 -204 -6
-240 -9 -255 -24 -16 -15 -15 -18 3 -38 10 -12 46 -40 78 -62 123 -83 151
-132 116 -198 -24 -48 -26 -97 -3 -144 22 -45 41 -51 176 -48 l107 3 17 -35
c11 -23 41 -51 85 -81 l69 -46 49 46 c27 25 51 46 54 46 10 0 -8 -36 -51 -102
-24 -36 -55 -92 -68 -123 -23 -51 -28 -56 -48 -50 -12 4 -38 8 -57 9 -30 1
-37 -3 -51 -34 -9 -19 -22 -69 -29 -110 -24 -160 -48 -204 -130 -245 -58 -29
-89 -55 -84 -69 3 -7 34 -34 69 -60 36 -26 65 -53 65 -60 0 -21 -54 -90 -98
-124 -91 -72 -244 -112 -435 -112 -101 0 -119 -2 -124 -17 -8 -22 32 -140 104
-302 95 -216 92 -205 60 -239 -27 -28 -32 -29 -145 -35 -142 -7 -280 -44 -304
-81 -4 -6 -1 -18 7 -26 12 -14 10 -22 -15 -60 -17 -25 -30 -51 -30 -57 0 -10
33 -13 129 -13 l130 0 -2 -42 c-2 -39 0 -43 23 -47 14 -1 28 -8 32 -15 11 -16
0 -65 -23 -105 -30 -51 -29 -52 124 -133 26 -13 42 -15 86 -8 54 9 127 7 138
-4 3 -3 -33 -74 -81 -157 -48 -83 -86 -159 -84 -168 3 -14 16 -16 93 -13 71 3
105 -1 160 -18 159 -50 187 -77 203 -199 7 -49 12 -104 12 -123 0 -58 15 -62
128 -39 239 50 471 84 582 86 127 3 119 -2 140 84 8 29 14 40 20 32 4 -8 16
-10 27 -7 14 4 23 -2 38 -27 10 -17 36 -55 57 -83 40 -54 46 -72 26 -92 -10
-10 -1 -24 38 -65 28 -28 61 -69 73 -90 13 -20 29 -37 36 -37 7 0 46 13 87 29
40 16 108 39 150 52 l77 22 19 -23 c16 -20 31 -25 85 -28 48 -3 71 -9 83 -23
9 -11 27 -19 38 -19 27 1 97 32 119 54 15 16 16 20 1 47 -8 17 -25 34 -37 38
-17 7 12 19 143 61 91 28 212 67 270 85 313 99 328 102 363 75 12 -9 49 -33
82 -53 33 -19 103 -72 155 -117 104 -89 326 -264 388 -305 l39 -26 74 25 c41
13 127 42 192 65 172 59 178 59 381 -44 108 -55 179 -85 200 -85 27 0 46 13
108 73 84 83 158 125 209 121 19 -2 63 -6 98 -10 93 -10 297 15 318 38 15 17
15 20 -6 42 -13 14 -69 48 -124 78 -135 70 -163 96 -183 167 -9 31 -21 61 -26
68 -5 6 -44 14 -86 18 -158 13 -292 43 -486 106 -33 10 -87 19 -121 19 -51 0
-65 4 -83 23 -27 29 -29 78 -3 101 11 10 45 24 78 33 32 8 102 30 156 49 54
18 139 43 190 55 55 13 136 42 203 74 60 29 128 58 150 64 73 20 188 13 322
-20 69 -17 134 -28 145 -25 13 3 31 -4 48 -19 46 -38 137 -68 188 -61 44 6 45
6 110 -62 36 -37 85 -88 108 -113 46 -50 49 -52 203 -99 58 -18 144 -52 191
-75 l85 -43 75 14 c163 31 380 51 683 64 193 8 232 12 255 27 23 16 49 18 206
18 99 0 226 -6 282 -14 120 -15 88 -31 313 149 217 172 212 170 549 290 79 28
152 55 162 61 21 11 25 44 9 54 -16 10 -268 51 -520 86 -272 36 -386 54 -465
74 -33 8 -81 14 -107 15 -27 0 -48 5 -48 10 0 6 19 10 43 9 42 -1 302 53 345
71 12 5 22 17 22 25 0 17 -102 125 -159 167 l-33 25 118 7 c415 24 913 79 962
105 120 64 -248 86 -1138 67 -348 -7 -438 -6 -560 7 -80 9 -189 19 -243 22
-67 5 -97 11 -94 18 3 9 71 11 253 9 380 -6 584 18 815 96 218 74 375 166 504
296 224 225 320 498 294 830 -18 217 -54 327 -230 686 -146 301 -170 373 -172
520 -1 149 29 228 128 340 51 58 55 81 20 115 -77 78 -258 -35 -347 -216 -48
-99 -70 -200 -70 -324 0 -140 13 -198 102 -465 91 -273 110 -361 110 -514 0
-197 -43 -310 -165 -431 -140 -141 -350 -215 -610 -215 -152 0 -396 33 -415
55 -9 11 -54 163 -74 248 -4 17 0 39 10 59 35 67 -3 302 -76 473 l-20 46 50
-7 c72 -9 72 -11 -49 184 -18 29 -41 78 -51 110 -10 31 -36 110 -59 175 -23
65 -41 119 -41 121 0 2 9 6 20 9 27 7 27 68 0 164 -27 99 -60 169 -125 269
-30 46 -55 87 -55 89 0 3 7 5 16 5 24 0 12 63 -20 105 -14 18 -22 36 -18 40 4
5 1 5 -6 1 -7 -5 -21 -2 -30 7 -9 8 -45 29 -80 47 -34 18 -61 34 -60 35 2 1
16 5 32 9 24 6 27 4 22 -9 -4 -12 -1 -15 12 -13 9 1 46 -19 80 -45 34 -27 67
-47 72 -45 19 7 -27 76 -93 141 -64 61 -68 67 -44 67 41 0 39 14 -9 61 -54 52
-101 126 -88 139 5 5 27 5 52 -2 23 -6 46 -8 49 -4 4 3 -6 35 -20 71 -35 84
-34 87 8 79 62 -11 41 33 -32 70 -45 22 -43 40 3 33 51 -8 54 13 13 89 -18 35
-31 65 -28 69 4 3 48 1 100 -5 278 -33 573 66 773 259 160 154 260 352 318
630 20 92 23 136 23 331 -1 171 -5 247 -18 317 -63 330 -202 612 -380 766
-182 158 -350 221 -587 220 -137 -1 -240 -24 -366 -82 l-62 -29 -58 87 c-79
118 -284 322 -397 395 -96 63 -236 132 -338 167 l-67 23 -5 53 c-11 110 -80
209 -184 266 -91 49 -229 69 -326 46z m183 -60 c28 -6 49 -13 46 -16 -3 -3
-38 -5 -78 -5 -69 0 -70 -1 -29 -9 96 -19 51 -22 -59 -4 -28 4 -31 3 -15 -5
17 -9 16 -10 -9 -6 -47 6 -155 -61 -139 -86 5 -10 -21 -38 -36 -38 -19 0 -12
56 9 83 64 81 182 114 310 86z m40 -37 c0 -5 -9 -17 -20 -27 -16 -15 -24 -16
-42 -6 l-23 11 23 -6 c20 -5 27 3 23 29 0 4 8 7 19 7 11 0 20 -4 20 -8z m-100
-16 c0 -3 -4 -8 -10 -11 -5 -3 -10 -1 -10 4 0 6 5 11 10 11 6 0 10 -2 10 -4z
m113 -36 c21 0 -8 -18 -61 -39 -39 -14 -50 -16 -41 -5 6 8 18 14 25 14 17 0
19 20 2 21 -7 1 -2 5 12 9 14 4 31 6 38 4 8 -2 19 -4 25 -4z m-294 -13 c-2 -1
-13 -9 -24 -17 -19 -14 -19 -14 -6 3 7 9 18 17 24 17 6 0 8 -1 6 -3z m111 -57
c0 -5 -7 -7 -15 -4 -8 4 -15 8 -15 10 0 2 7 4 15 4 8 0 15 -4 15 -10z m-290
-89 c0 -8 -143 -77 -152 -73 -5 1 -7 -1 -6 -5 2 -5 -20 -31 -48 -59 -47 -46
-78 -88 -143 -194 l-21 -35 2 35 c3 34 2 35 -29 32 -33 -3 -33 -3 -33 41 0 27
-6 49 -15 57 -13 11 -15 5 -15 -45 0 -31 -4 -55 -9 -53 -5 2 -28 20 -51 42
-33 29 -39 40 -29 47 9 6 -3 9 -33 9 -27 0 -48 -4 -48 -9 0 -4 11 -6 24 -4 13
3 27 -1 31 -8 5 -8 4 -10 -3 -5 -7 4 -12 2 -12 -3 0 -6 11 -11 25 -11 14 0 25
-4 25 -10 0 -5 -18 -10 -40 -10 -22 0 -40 -4 -40 -10 0 -5 18 -10 40 -10 22 0
40 -4 40 -8 0 -10 -90 -32 -131 -32 -20 0 -29 -5 -29 -16 0 -23 -21 -40 -65
-52 l-40 -11 45 5 c41 4 38 2 -45 -33 -122 -52 -143 -64 -193 -115 -101 -102
-138 -185 -173 -386 l-18 -107 5 92 c6 114 34 226 75 303 38 72 124 160 195
201 48 27 62 49 33 49 -6 0 -7 -4 -4 -10 3 -6 -1 -7 -10 -3 -13 5 -14 7 -3 14
8 6 1 9 -22 9 -27 0 -32 -3 -20 -11 13 -9 13 -10 0 -6 -8 2 -14 10 -13 16 4
15 -9 14 -35 -5 -13 -9 -26 -13 -29 -10 -4 3 -1 6 6 6 7 0 9 5 6 10 -4 6 -11
8 -16 5 -23 -15 -6 5 19 21 23 15 25 15 13 1 -12 -16 -9 -17 37 -11 44 4 55 2
74 -16 33 -31 56 -42 63 -30 3 5 1 10 -6 10 -7 0 -4 9 8 20 12 10 24 28 28 40
6 20 25 28 25 10 0 -15 29 -12 46 4 21 21 17 46 -6 46 -11 0 -20 -4 -20 -9 0
-6 -18 -9 -41 -8 -26 1 -43 -4 -49 -13 -8 -12 -10 -12 -10 -2 0 8 10 16 22 20
21 5 21 6 2 14 -14 6 -11 7 10 3 23 -5 27 -3 23 9 -4 9 -1 14 6 11 7 -2 27 -6
45 -9 38 -7 42 7 10 36 -13 11 -17 17 -10 13 7 -3 22 -3 33 0 17 6 19 9 8 16
-12 7 -12 9 0 9 8 0 12 2 9 5 -4 5 -97 -31 -170 -65 -24 -11 -26 -16 -15 -29
11 -14 10 -14 -5 -2 -15 11 -22 10 -50 -8 -18 -11 -49 -29 -68 -40 -40 -22
-100 -81 -82 -81 7 0 12 5 12 10 0 6 4 10 10 10 19 0 -2 -29 -31 -42 -34 -15
-36 -23 -24 -95 2 -15 -1 -20 -10 -17 -8 3 -23 -12 -38 -36 -16 -28 -27 -38
-32 -30 -4 7 -2 16 5 20 8 5 9 10 2 14 -6 3 -13 0 -15 -6 -3 -8 -6 -6 -6 5 -1
9 -5 17 -11 17 -17 0 -11 -26 10 -45 24 -21 26 -41 5 -49 -8 -3 -15 -13 -15
-23 0 -30 -22 2 -24 36 -2 23 2 30 11 27 17 -7 16 -1 -2 17 -13 13 -12 18 5
39 12 15 19 18 20 9 0 -11 4 -11 18 2 21 19 37 23 27 7 -4 -6 5 -5 19 2 14 6
26 15 26 20 0 13 -18 9 -22 -4 -3 -9 -9 -8 -22 5 -27 27 -57 17 -33 -11 10
-13 9 -14 -8 -9 -15 5 -27 -2 -48 -28 -16 -20 -21 -32 -12 -29 8 4 15 1 15 -5
0 -6 -6 -11 -14 -11 -10 0 -13 -13 -10 -55 1 -30 -1 -55 -7 -55 -5 0 -9 -7 -9
-16 0 -19 25 -46 34 -36 4 3 4 -1 0 -11 -3 -10 -1 -17 6 -17 13 0 5 -58 -11
-74 -5 -6 -9 -23 -9 -38 0 -16 -9 -36 -21 -46 -11 -9 -30 -25 -41 -35 -26 -22
-18 -31 27 -29 19 1 35 -2 35 -6 0 -9 -50 -32 -70 -32 -8 0 -24 -6 -35 -14
-28 -19 -135 -57 -135 -48 0 4 -4 1 -9 -7 -5 -7 -14 -12 -22 -9 -21 7 30 46
109 84 42 20 72 41 72 49 0 18 1 18 -44 0 -21 -9 -36 -11 -36 -5 0 5 5 10 11
10 5 0 7 5 4 10 -10 16 -23 11 -27 -10 -2 -12 -5 -19 -8 -18 -3 2 -18 -7 -34
-19 -16 -13 -32 -20 -36 -18 -9 6 31 161 61 237 29 75 78 167 122 233 57 83
188 218 278 285 196 146 500 259 779 289 58 6 119 13 135 15 48 5 145 4 145
-3z m65 -30 c-6 -5 -26 -14 -45 -20 -19 -6 -48 -22 -65 -35 l-30 -25 25 -10
25 -10 -27 2 c-15 1 -24 5 -22 9 6 10 1 10 -20 2 -18 -7 -22 -24 -5 -24 16 0
39 -26 39 -44 0 -9 -4 -16 -10 -16 -5 0 -10 9 -10 20 0 13 -7 20 -19 20 -11 0
-21 6 -24 13 -3 8 -11 5 -26 -10 -12 -13 -24 -23 -27 -23 -26 0 111 104 178
135 55 26 80 32 63 16z m189 -13 c45 -11 83 -24 86 -28 3 -4 12 -9 20 -12 12
-5 -16 -4 -87 1 -7 1 -13 7 -13 15 0 13 -15 18 -125 40 -13 2 -9 4 9 5 16 0
66 -9 110 -21z m-81 -5 c-7 -2 -19 -2 -25 0 -7 3 -2 5 12 5 14 0 19 -2 13 -5z
m262 -63 c3 -5 1 -10 -4 -10 -6 0 -11 5 -11 10 0 6 2 10 4 10 3 0 8 -4 11 -10z
m-230 -20 c3 -5 -1 -10 -9 -10 -9 0 -16 5 -16 10 0 6 4 10 9 10 6 0 13 -4 16
-10z m82 -6 c-3 -3 -12 -4 -19 -1 -8 3 -5 6 6 6 11 1 17 -2 13 -5z m-463 -70
c3 -9 2 -12 -5 -9 -5 4 -17 1 -26 -7 -15 -12 -15 -11 -2 10 16 26 25 28 33 6z
m436 -4 c0 -5 -18 -10 -40 -10 -22 0 -40 5 -40 10 0 6 18 10 40 10 22 0 40 -4
40 -10z m325 0 c-3 -5 -12 -10 -18 -10 -7 0 -6 4 3 10 19 12 23 12 15 0z m39
-52 c4 -24 3 -38 -4 -38 -5 0 -10 8 -11 18 0 14 -2 14 -9 -3 -8 -18 -9 -17 -9
7 -1 15 4 30 10 33 6 4 8 14 4 24 -4 10 -3 12 3 6 5 -5 13 -27 16 -47z m-2006
7 c58 -17 135 -72 140 -99 3 -12 -16 -37 -50 -70 -30 -28 -71 -71 -92 -96 -21
-25 -35 -39 -30 -31 5 9 3 12 -4 7 -7 -4 -12 -15 -12 -24 0 -18 -59 -126 -65
-120 -2 2 0 20 5 41 4 20 4 39 0 42 -9 5 -40 -72 -40 -100 0 -17 -2 -17 -10
-5 -8 12 -10 11 -10 -7 0 -13 -4 -23 -9 -23 -5 0 -12 -16 -15 -35 -4 -20 -11
-33 -17 -29 -5 3 -8 13 -5 22 2 10 7 46 11 82 5 54 4 62 -7 45 -6 -11 -15 -36
-19 -55 -6 -31 -8 -33 -14 -12 -4 12 -10 22 -14 22 -4 0 -13 -59 -19 -130 -7
-72 -16 -140 -21 -153 -9 -24 -10 -14 -29 229 -13 166 -41 218 -99 182 -16
-10 -27 -25 -26 -34 1 -11 -2 -13 -10 -5 -7 7 -14 5 -23 -7 -16 -20 -18 -36
-4 -27 6 3 7 -1 4 -10 -5 -12 -9 -13 -20 -4 -17 14 -18 5 -3 -24 12 -21 11
-21 -8 -4 -22 19 -39 12 -22 -10 9 -10 8 -13 0 -13 -8 0 -10 -8 -6 -21 5 -14
4 -19 -4 -15 -7 5 -9 1 -5 -8 3 -9 1 -16 -6 -16 -6 0 -8 -4 -5 -10 3 -5 2 -10
-3 -10 -10 0 -38 -88 -34 -107 1 -6 -14 -51 -34 -100 -49 -117 -101 -297 -119
-408 -18 -108 -18 -297 -2 -457 7 -65 9 -118 6 -118 -6 0 -16 -38 -21 -77 -1
-9 -5 -10 -14 -2 -10 8 -12 4 -9 -23 12 -98 14 -162 5 -148 -22 33 -60 174
-76 281 -24 166 -15 467 19 641 49 247 159 525 283 713 62 96 189 235 253 280
101 69 207 90 309 60z m2036 -10 c3 -8 1 -15 -3 -15 -5 0 -11 7 -15 15 -3 8
-1 15 3 15 5 0 11 -7 15 -15z m-896 -36 c-3 -8 -7 -3 -11 10 -4 17 -3 21 5 13
5 -5 8 -16 6 -23z m682 11 c0 -5 -4 -10 -10 -10 -5 0 -10 5 -10 10 0 6 5 10
10 10 6 0 10 -4 10 -10z m-900 -30 c0 -5 15 -11 33 -11 26 -1 27 -2 7 -6 -14
-2 -41 -11 -61 -19 -27 -12 -44 -13 -70 -6 -30 9 -31 10 -9 13 15 1 8 4 -20 8
l-45 7 45 11 c58 14 120 16 120 3z m190 -5 c-6 -8 -9 -18 -6 -23 3 -5 -1 -9
-9 -9 -18 0 -18 3 -5 28 6 10 16 19 22 19 7 0 6 -5 -2 -15z m323 8 c-7 -2 -19
-2 -25 0 -7 3 -2 5 12 5 14 0 19 -2 13 -5z m647 -3 c0 -5 -10 -10 -22 -10 -19
0 -20 2 -8 10 19 13 30 13 30 0z m37 -16 c-3 -3 -12 -4 -19 -1 -8 3 -5 6 6 6
11 1 17 -2 13 -5z m-663 -13 c4 -5 -3 -7 -14 -4 -23 6 -26 13 -6 13 8 0 17 -4
20 -9z m-689 -21 c3 -5 0 -10 -8 -10 -8 0 -29 -3 -46 -6 -24 -5 -31 -3 -31 10
0 12 10 16 39 16 22 0 43 -4 46 -10z m455 0 c13 -9 13 -10 0 -9 -8 1 -26 5
-40 9 l-25 8 25 1 c14 0 32 -4 40 -9z m42 -1 c2 -6 16 -11 31 -11 15 0 27 -4
27 -9 0 -14 57 -10 73 5 8 8 19 11 26 6 9 -5 4 -9 -13 -14 -15 -4 -24 -11 -21
-16 3 -5 17 -3 31 5 23 12 30 11 60 -7 19 -11 43 -31 53 -44 10 -13 21 -20 25
-17 12 12 6 -13 -6 -26 -10 -11 -10 -13 0 -7 6 4 12 2 12 -3 0 -16 -4 -14 -65
20 -32 18 -52 35 -48 42 4 6 0 8 -9 4 -9 -3 -19 -2 -24 3 -5 4 -27 13 -49 20
-77 23 -125 43 -125 51 0 13 18 11 22 -2z m316 -21 c5 -7 13 -24 17 -37 l7
-24 -26 19 c-14 11 -26 25 -26 33 0 8 -6 11 -16 7 -8 -3 -12 -2 -9 4 9 14 41
12 53 -2z m-1243 -57 c3 -5 0 -13 -6 -17 -8 -4 -9 -3 -5 4 10 17 -13 15 -30
-3 -9 -8 -12 -20 -8 -26 4 -8 3 -9 -4 -5 -16 10 -15 22 4 40 17 18 40 21 49 7z
m1290 -10 c3 -5 2 -12 -3 -15 -5 -3 -9 1 -9 9 0 17 3 19 12 6z m-10 -79 c-7
-7 -45 29 -45 41 0 6 11 0 25 -13 14 -13 23 -26 20 -28z m-17 -37 c-3 -3 -9 2
-12 12 -6 14 -5 15 5 6 7 -7 10 -15 7 -18z m722 -63 c0 -3 -7 3 -15 14 -8 10
-14 26 -15 34 0 8 7 2 15 -14 8 -15 15 -31 15 -34z m-1169 17 c73 -10 139 -31
139 -44 0 -10 -116 10 -125 21 -6 8 -46 17 -90 22 -44 5 -64 10 -44 11 20 0
74 -4 120 -10z m549 -14 c0 -8 -4 -15 -10 -15 -5 0 -10 7 -10 15 0 8 5 15 10
15 6 0 10 -7 10 -15z m90 0 c0 -8 -4 -15 -10 -15 -5 0 -10 7 -10 15 0 8 5 15
10 15 6 0 10 -7 10 -15z m-2229 -18 c-10 -9 -11 -8 -5 6 3 10 9 15 12 12 3 -3
0 -11 -7 -18z m1192 16 c-7 -2 -21 -2 -30 0 -10 3 -4 5 12 5 17 0 24 -2 18 -5z
m1537 -50 c-11 -17 -11 -17 -6 0 3 10 6 24 7 30 0 9 2 9 5 0 3 -7 0 -20 -6
-30z m31 0 c-12 -20 -14 -14 -5 12 4 9 9 14 11 11 3 -2 0 -13 -6 -23z m-966
-3 c15 -6 25 -13 22 -16 -8 -8 -67 18 -67 29 0 5 4 6 9 3 4 -3 21 -10 36 -16z
m368 -72 c-3 -18 -2 -29 3 -26 5 4 9 -30 10 -75 l1 -82 -13 45 -14 45 4 -42
c2 -24 0 -43 -4 -43 -5 0 -8 -25 -8 -55 1 -55 -17 -115 -33 -115 -11 0 -12 -9
5 80 8 45 12 125 11 200 -2 69 0 129 3 134 3 5 13 -1 23 -13 13 -16 16 -31 12
-53z m1836 61 c158 -25 321 -117 443 -249 70 -75 149 -197 162 -250 4 -16 -1
-11 -15 15 -25 46 -119 162 -119 147 0 -6 6 -17 13 -24 24 -25 55 -83 50 -95
-3 -7 0 -13 6 -13 6 0 11 -8 11 -18 0 -10 8 -29 17 -42 10 -14 16 -26 15 -28
-2 -1 6 -23 18 -48 43 -98 105 -337 129 -499 17 -109 18 -389 3 -408 -7 -8
-13 -35 -14 -60 -1 -25 -5 -44 -9 -41 -4 2 -7 -6 -6 -19 0 -33 -12 -84 -28
-120 l-15 -32 4 35 c4 34 4 33 -20 -15 -14 -27 -22 -42 -19 -32 16 56 18 70 6
63 -6 -4 -11 -15 -11 -24 -1 -15 -3 -14 -16 3 -9 12 -14 34 -12 53 2 17 3 32
2 32 -15 0 -34 -15 -34 -28 0 -8 -3 -13 -6 -10 -3 4 1 51 10 106 18 111 22
297 6 272 -5 -8 -10 -32 -10 -52 0 -81 -52 -265 -104 -367 -38 -76 -106 -172
-117 -166 -5 4 -8 1 -7 -6 2 -7 -1 -14 -7 -14 -19 -3 -62 -23 -76 -37 -19 -18
-69 -39 -78 -34 -4 3 -34 -1 -67 -9 -81 -20 -199 -19 -265 2 l-54 17 40 7 c31
5 34 6 12 8 -63 3 -171 75 -197 130 -32 68 -31 80 7 133 l37 51 -57 -5 c-32
-3 -60 -1 -63 4 -3 5 8 29 25 55 17 25 28 49 25 52 -4 3 -9 0 -11 -7 -5 -13
-23 -7 -23 8 0 5 10 18 22 30 12 11 17 20 11 20 -6 0 -16 -7 -23 -15 -7 -8
-17 -15 -23 -15 -6 0 -3 8 7 18 21 21 81 115 78 123 0 4 8 15 18 24 26 23 26
39 1 25 -32 -17 -53 -13 -42 8 17 30 41 115 41 142 0 15 23 65 50 111 28 46
46 85 40 87 -17 6 -11 26 11 40 14 9 18 19 14 32 -4 13 -2 20 7 20 7 1 31 17
53 36 l40 36 -50 -28 c-28 -16 -44 -21 -38 -13 7 9 10 19 7 22 -21 21 170 139
257 157 48 11 65 10 132 -8 83 -21 96 -14 20 12 -58 20 -139 20 -222 1 -35 -9
-66 -14 -68 -12 -5 5 61 23 135 38 101 19 200 -9 262 -76 14 -15 33 -31 42
-36 14 -8 16 -6 11 8 -5 15 -1 14 19 -5 13 -12 28 -19 33 -15 4 5 5 3 2 -3 -4
-7 0 -15 9 -18 24 -9 78 -140 115 -281 l19 -70 -5 78 c-9 155 -82 374 -172
515 -18 29 -33 57 -33 62 0 6 -7 10 -15 10 -8 0 -14 3 -13 8 3 15 -15 42 -25
35 -6 -3 -7 -1 -3 5 4 7 -20 31 -61 61 -95 70 -197 98 -298 82 -116 -19 -250
-92 -359 -195 -32 -30 -63 -53 -68 -50 -4 3 -8 2 -7 -3 4 -22 -2 -35 -15 -30
-10 4 -13 1 -9 -9 3 -7 9 -14 15 -14 5 0 6 -5 3 -10 -4 -6 -13 -4 -23 7 -16
15 -17 15 -20 0 -2 -9 -8 -17 -13 -17 -6 0 -8 -4 -5 -8 2 -4 1 -14 -5 -22 -7
-12 -9 -11 -9 5 0 12 -19 -10 -50 -57 -27 -42 -50 -81 -50 -87 0 -5 -5 -13
-10 -16 -7 -4 -8 3 -4 22 l7 28 -22 -22 c-11 -12 -21 -25 -21 -28 0 -13 -30
-36 -39 -31 -5 3 -7 -3 -4 -14 4 -15 0 -20 -16 -20 -18 0 -20 -4 -15 -24 3
-13 1 -27 -5 -30 -7 -5 -11 2 -11 16 -1 22 -1 22 -15 4 -15 -19 -15 -19 -15 1
0 12 -4 24 -9 28 -6 3 -6 18 0 38 11 39 11 47 1 47 -4 0 -15 -19 -23 -42 -9
-23 -21 -44 -27 -46 -8 -2 -10 3 -5 14 4 12 3 15 -5 10 -7 -4 -12 -15 -13 -24
-2 -42 -17 39 -18 99 -2 131 73 345 165 470 46 63 164 173 232 217 148 94 351
132 541 101z m-1210 -62 c1 -10 -3 -15 -9 -12 -5 3 -10 23 -9 43 1 33 2 34 9
12 4 -14 8 -33 9 -43z m-1279 23 c246 -24 478 -68 509 -95 11 -11 10 -15 -8
-25 -12 -6 -19 -15 -16 -21 4 -5 1 -9 -4 -9 -6 0 -11 6 -11 13 0 7 -10 13 -22
14 -13 0 -17 -1 -10 -4 6 -3 12 -9 12 -14 0 -6 -5 -7 -12 -3 -7 4 -28 11 -48
15 -31 6 -32 7 -7 8 15 0 27 6 27 12 0 6 -7 8 -16 5 -8 -3 -27 -3 -41 0 l-26
7 24 14 c24 14 24 14 -6 9 -55 -10 -195 -14 -195 -5 0 11 -60 36 -90 37 -13 1
-27 -4 -31 -9 -4 -8 -13 -8 -28 0 -17 10 -25 9 -37 -4 -8 -8 -23 -15 -31 -15
-25 0 -53 -30 -55 -59 0 -16 -4 -8 -8 19 l-7 45 -1 -55 c-1 -30 2 -60 6 -66 4
-7 33 -11 69 -10 54 1 62 3 57 18 -2 9 -1 19 4 22 6 3 9 -2 8 -12 0 -9 5 -16
12 -14 6 1 12 -2 12 -8 0 -5 5 -10 10 -10 6 0 10 6 10 13 0 23 33 47 45 34 22
-26 16 -46 -17 -56 -24 -7 -27 -9 -11 -10 12 -1 29 -4 39 -8 10 -3 15 -2 12 3
-4 5 20 9 54 9 48 1 55 -1 33 -8 -16 -6 -24 -14 -21 -22 3 -8 0 -16 -7 -18
-18 -6 -79 10 -87 23 -5 8 -13 9 -26 2 -13 -6 -77 -5 -189 4 -93 7 -270 13
-392 13 -199 1 -223 3 -223 17 0 14 3 14 16 4 8 -8 14 -9 13 -4 -4 21 2 24 22
13 15 -8 19 -8 15 0 -5 7 4 11 23 11 44 0 65 42 45 89 -8 18 -12 37 -9 41 3 4
-13 3 -34 -2 -48 -12 -68 -48 -51 -92 13 -36 13 -35 -11 -29 -18 5 -19 11 -15
53 3 26 7 53 10 61 2 8 7 26 10 41 4 17 14 28 29 32 38 8 556 -2 677 -14z
m1217 -22 c-3 -8 -6 -5 -6 6 -1 11 2 17 5 13 3 -3 4 -12 1 -19z m33 2 c0 -11
-4 -20 -10 -20 -5 0 -10 9 -10 20 0 11 5 20 10 20 6 0 10 -9 10 -20z m-2550
-10 c0 -5 -5 -10 -11 -10 -5 0 -7 5 -4 10 3 6 8 10 11 10 2 0 4 -4 4 -10z
m1290 -50 c8 -5 11 -10 5 -10 -5 0 -17 5 -25 10 -8 5 -10 10 -5 10 6 0 17 -5
25 -10z m-621 -14 c15 -18 3 -46 -19 -46 -10 0 -21 7 -24 16 -6 16 9 44 24 44
4 0 13 -6 19 -14z m1928 -18 c-3 -8 -6 -5 -6 6 -1 11 2 17 5 13 3 -3 4 -12 1
-19z m-1327 -12 c0 -25 -15 -37 -37 -28 -14 4 -18 34 -6 45 3 4 15 7 25 7 12
0 18 -7 18 -24z m807 -58 c-2 -13 -4 -3 -4 22 0 25 2 35 4 23 2 -13 2 -33 0
-45z m-587 27 c0 -18 -5 -25 -20 -25 -15 0 -20 7 -20 25 0 18 5 25 20 25 15 0
20 -7 20 -25z m55 -20 c2 -14 0 -23 -5 -20 -4 2 -7 16 -7 30 0 32 9 25 12 -10z
m1032 -12 c-3 -10 -5 -2 -5 17 0 19 2 27 5 18 2 -10 2 -26 0 -35z m-867 22
c18 -22 3 -57 -23 -53 -22 3 -33 28 -23 54 7 18 30 18 46 -1z m-1900 -54 c0
-14 2 -14 11 -1 8 12 10 9 6 -12 -2 -16 -1 -28 3 -28 4 0 12 -42 18 -92 11
-84 36 -191 57 -242 7 -16 5 -18 -8 -13 -14 5 -15 2 -7 -19 11 -28 2 -26 -39
10 l-24 21 23 -39 c16 -26 20 -41 13 -43 -7 -3 -9 -11 -6 -19 6 -16 -33 -34
-75 -34 -26 0 -25 -1 18 -45 l43 -44 -42 -103 c-37 -89 -74 -201 -114 -340 -7
-26 -16 -38 -29 -38 -10 0 -18 7 -18 16 0 8 -4 13 -9 10 -5 -4 -11 0 -14 6 -2
7 -7 10 -11 7 -4 -4 0 -14 9 -23 9 -9 12 -16 7 -16 -5 0 -28 20 -51 45 -23 25
-44 45 -46 45 -3 0 -5 -10 -5 -22 0 -39 -10 -13 -26 73 -20 104 -15 346 10
459 44 200 168 489 204 475 7 -2 21 4 31 14 23 23 71 17 71 -8z m2147 -13 c-3
-8 -6 -5 -6 6 -1 11 2 17 5 13 3 -3 4 -12 1 -19z m30 -20 c-3 -7 -5 -2 -5 12
0 14 2 19 5 13 2 -7 2 -19 0 -25z m-382 3 c3 -5 1 -12 -4 -15 -13 -8 -42 4
-35 15 7 12 31 12 39 0z m111 -19 c-9 -8 -56 -11 -51 -2 2 4 16 8 30 8 14 0
24 -3 21 -6z m794 -104 c0 -11 -41 -10 -59 1 -10 6 -2 9 22 8 21 0 37 -5 37
-9z m57 -20 c-3 -7 -5 -2 -5 12 0 14 2 19 5 13 2 -7 2 -19 0 -25z m-1907 12
c-31 -7 -31 -10 -1 -14 5 0 13 -4 17 -8 4 -5 14 -8 23 -7 12 0 11 3 -4 9 -16
7 -17 9 -3 9 9 1 18 5 20 11 5 15 119 -19 146 -43 l22 -21 -11 32 c-6 17 -18
33 -27 35 -9 3 -2 5 17 6 20 1 38 -5 45 -15 6 -8 20 -16 30 -18 9 -1 22 -9 27
-17 7 -10 8 -4 4 19 -6 27 -4 32 12 32 26 0 43 -19 43 -47 0 -13 5 -23 10 -23
6 0 10 14 10 30 0 33 13 37 54 19 l24 -11 -19 -32 c-28 -46 -23 -51 11 -12 23
26 40 35 73 38 23 3 50 1 60 -4 10 -5 40 -10 67 -10 41 -1 48 -4 45 -20 -2
-11 2 -18 11 -18 8 0 13 4 10 9 -9 15 46 20 61 6 17 -18 16 -23 -4 -28 -10 -2
6 -4 35 -5 36 -1 50 3 46 10 -5 7 -2 9 9 5 8 -3 28 -2 44 2 26 7 25 8 -20 15
-27 4 -46 10 -44 13 8 8 147 -19 147 -28 0 -5 6 -6 13 -3 7 2 24 1 37 -4 l24
-9 -29 -16 c-17 -9 -25 -16 -19 -17 6 0 23 9 37 20 25 20 67 27 67 12 0 -5
-18 -16 -41 -26 -56 -25 -149 -147 -111 -146 4 0 36 9 72 21 66 20 170 27 228
14 28 -6 32 -4 32 15 0 11 -7 35 -16 51 -8 17 -14 33 -12 35 9 8 47 -9 41 -18
-4 -7 6 -9 25 -6 17 2 29 1 27 -2 -2 -4 15 -13 38 -20 23 -8 86 -35 140 -62
98 -48 138 -61 101 -33 -24 18 -11 19 24 2 138 -69 198 -107 172 -107 -7 0
-28 11 -46 25 -31 24 -92 36 -79 15 3 -5 11 -7 18 -4 7 2 26 -8 43 -23 17 -16
50 -45 74 -66 36 -31 41 -40 30 -48 -12 -8 -10 -9 7 -4 12 3 24 1 28 -6 6 -8
10 -7 16 2 13 20 11 31 -3 23 -7 -4 -10 -4 -6 1 8 8 -1 18 -45 52 -15 12 -24
24 -19 27 15 9 156 -138 189 -196 17 -32 16 -46 -3 -22 -13 16 -15 16 -10 2 3
-12 0 -18 -9 -18 -8 0 -15 -9 -15 -20 0 -11 5 -20 10 -20 6 0 10 -10 10 -22 0
-12 9 -31 19 -42 11 -12 27 -34 35 -51 16 -30 16 -30 17 -5 0 15 3 19 6 10 10
-28 37 -51 93 -81 48 -26 94 -69 73 -69 -12 0 -104 57 -140 86 -18 15 -33 23
-33 18 0 -5 16 -20 35 -33 19 -13 35 -29 35 -37 0 -7 9 -16 21 -19 12 -4 18
-12 15 -21 -4 -10 2 -14 19 -14 17 0 23 -4 19 -14 -3 -8 4 -21 18 -30 22 -14
137 -40 212 -48 51 -5 41 -25 -16 -31 -59 -6 -120 -27 -100 -34 6 -3 12 -15
12 -28 0 -15 7 -26 20 -30 11 -3 20 -11 20 -16 0 -10 -12 -12 -47 -9 -30 2
-28 -8 7 -49 29 -34 32 -65 4 -36 -18 17 -34 20 -34 4 0 -5 -4 -8 -9 -4 -5 3
-12 1 -16 -5 -3 -6 3 -10 15 -10 40 0 -5 -30 -47 -31 -21 -1 -29 -4 -19 -6 15
-4 16 -7 5 -15 -10 -7 -8 -8 8 -3 13 3 28 1 35 -4 7 -6 24 -20 38 -31 14 -10
19 -19 13 -20 -7 0 -13 5 -13 10 0 6 -7 10 -15 10 -8 0 -15 -5 -15 -11 0 -5 4
-8 9 -4 5 3 17 -5 25 -17 14 -20 14 -23 1 -31 -8 -4 -24 -3 -36 3 -18 10 -19
10 -10 -8 5 -10 17 -25 26 -32 9 -8 31 -34 47 -59 25 -36 28 -43 12 -36 -45
19 -106 29 -112 18 -4 -6 -17 -14 -30 -17 l-23 -8 28 -20 c44 -33 193 -188
193 -201 0 -8 -2 -9 -8 -1 -9 14 -42 14 -42 -1 0 -6 9 -28 19 -49 20 -38 20
-38 0 -20 -19 17 -20 17 -13 -2 4 -10 20 -35 36 -54 43 -53 33 -67 -12 -16
-21 26 -43 54 -49 64 -15 27 -25 6 -12 -26 7 -16 9 -42 6 -58 -5 -22 -4 -25 4
-14 9 12 11 11 11 -7 0 -12 5 -25 10 -28 6 -3 10 -16 10 -28 -1 -22 -1 -22
-16 -2 -8 11 -21 28 -29 38 -8 9 -12 17 -9 17 3 0 2 5 -2 11 -4 8 -9 7 -15 -2
-8 -12 -11 -11 -19 1 -9 13 -10 13 -11 0 -1 -8 -1 -21 0 -29 2 -8 -2 -10 -10
-5 -9 5 -10 1 -5 -17 14 -49 29 -197 22 -223 -4 -15 -14 -26 -24 -27 -15 -1
-15 -2 0 -6 32 -8 -1 -123 -61 -210 -36 -52 -51 -60 -59 -32 -3 8 -1 11 3 7 4
-4 19 5 31 20 13 15 19 29 14 30 -13 5 -13 82 -1 82 6 0 13 21 17 48 6 40 9
43 14 22 7 -23 8 -22 15 13 5 24 13 37 23 37 32 0 -4 17 -78 38 -95 26 -156
39 -250 52 -41 5 -106 14 -144 19 -43 6 -77 17 -90 29 -11 11 -32 25 -46 32
l-25 13 24 -27 24 -26 -40 0 c-64 0 -421 48 -442 60 -11 5 -22 20 -24 32 -3
19 -5 18 -6 -6 -1 -28 -2 -28 -51 -24 -27 3 -57 11 -65 18 -19 15 -69 110 -62
116 2 3 42 11 88 20 127 22 133 24 122 35 -6 6 -49 4 -118 -5 -60 -8 -113 -12
-119 -9 -6 3 -39 40 -73 84 l-62 78 47 22 c323 147 514 199 728 199 57 0 133
-7 171 -15 89 -18 185 -52 195 -68 5 -9 8 -7 8 4 0 9 -7 22 -15 29 -8 7 -12
16 -9 21 3 5 0 9 -7 9 -8 0 -8 4 1 15 7 9 21 13 34 9 12 -3 32 -1 46 4 l24 9
-22 12 c-12 7 -45 15 -73 18 -64 8 -83 25 -74 69 7 39 -9 39 -39 -1 -35 -47
-47 -33 -41 48 3 39 8 86 10 102 4 21 2 26 -4 15 -20 -30 -26 6 -26 148 0 111
-5 163 -19 212 -30 107 -82 203 -149 272 -33 35 -60 66 -59 69 0 3 -5 6 -11 6
-7 0 -32 12 -56 27 -74 47 -147 68 -258 73 -91 5 -111 3 -186 -21 -147 -45
-286 -158 -360 -292 -43 -78 -62 -129 -87 -239 -10 -44 -19 -71 -20 -60 -5 47
-18 -45 -19 -135 -1 -131 27 -232 87 -302 8 -9 11 -21 8 -26 -7 -12 129 -76
144 -67 9 6 9 10 -1 17 -18 12 78 2 193 -20 l88 -17 -68 -24 c-37 -13 -100
-40 -141 -58 l-74 -34 -26 25 c-40 38 -158 96 -194 95 -29 0 -30 -1 -10 -9 31
-13 158 -97 173 -115 16 -19 23 -13 -87 -73 -110 -61 -228 -136 -238 -151 -13
-22 19 -9 179 74 90 47 171 85 180 85 18 0 51 -60 61 -111 l6 -35 -65 -23
c-41 -14 -66 -29 -66 -38 0 -9 6 -12 18 -9 9 3 33 7 52 10 19 2 43 7 53 11 20
8 23 -14 7 -46 -9 -16 -22 -19 -82 -19 -39 0 -69 -3 -65 -6 19 -19 -86 -152
-156 -199 -167 -110 -496 -72 -654 76 -24 22 -43 41 -43 43 0 2 26 18 57 36
79 45 154 119 189 187 25 50 29 69 29 138 0 87 -20 141 -73 198 -194 208 -607
164 -713 -76 -31 -70 -30 -169 1 -252 29 -76 130 -180 208 -215 28 -13 52 -26
52 -30 0 -17 -88 -60 -125 -61 -127 -4 -187 33 -323 198 l-24 28 19 -35 c11
-19 22 -51 26 -70 5 -30 1 -26 -23 24 -16 32 -34 90 -41 128 -14 80 -10 88 54
88 20 0 37 5 37 10 0 6 -17 10 -37 10 -50 0 -64 10 -56 39 6 23 8 23 82 17 88
-8 88 4 -1 35 -30 10 -52 24 -50 30 7 27 66 99 81 99 9 -1 27 -7 41 -15 32
-18 40 -18 40 -1 0 25 -349 257 -469 311 -37 16 -54 35 -33 35 5 0 17 7 28 15
16 13 14 13 -19 0 -25 -10 -51 -13 -75 -9 l-36 7 39 34 c43 38 107 73 168 92
38 13 46 28 25 49 -9 9 -7 12 9 12 45 0 170 -70 158 -89 -2 -5 -28 -11 -57
-14 -81 -10 -92 -13 -96 -27 -3 -9 3 -11 22 -8 71 14 161 -21 321 -123 72 -46
105 -61 144 -66 28 -3 51 -9 51 -12 0 -4 -19 -17 -42 -30 -44 -24 -82 -64 -76
-81 2 -6 26 6 53 26 60 43 202 117 305 160 l75 30 22 66 c13 37 35 129 50 205
23 119 27 163 27 323 1 168 -1 190 -21 239 -12 30 -20 58 -17 63 3 5 1 7 -3 6
-13 -4 -83 59 -75 67 4 4 3 5 -3 4 -5 -2 -27 5 -49 14 -66 29 -144 23 -223
-19 -37 -19 -85 -51 -105 -71 -25 -24 -42 -34 -55 -30 -16 6 -16 5 -2 -5 15
-10 12 -18 -27 -70 -23 -32 -46 -68 -49 -78 -4 -11 -10 -18 -14 -15 -18 11
-101 -384 -101 -485 0 -19 -4 -41 -9 -49 -16 -25 -24 9 -23 88 6 244 71 478
173 628 35 50 36 59 7 39 -49 -34 -50 -16 -3 54 93 138 170 200 305 246 83 28
108 31 91 11 -6 -8 -17 -29 -25 -48 l-14 -34 71 0 c60 0 82 -5 128 -29 69 -35
90 -31 80 16 -12 51 -38 95 -72 120 l-31 23 64 11 c35 6 79 11 98 11 l35 0
-35 -7z m1677 4 c-3 -3 -12 -4 -19 -1 -8 3 -5 6 6 6 11 1 17 -2 13 -5z m40 0
c-3 -3 -12 -4 -19 -1 -8 3 -5 6 6 6 11 1 17 -2 13 -5z m-41 -61 c-2 -2 -16 1
-31 7 -20 8 -31 7 -41 -1 -8 -7 -17 -9 -21 -5 -3 3 -1 6 5 6 7 0 12 5 12 11 0
6 -10 8 -22 5 -13 -3 -17 -3 -10 0 10 4 10 9 2 19 -7 8 15 2 49 -13 33 -14 59
-28 57 -29z m197 10 c5 -26 4 -26 -9 -8 -16 22 -18 35 -5 35 5 0 11 -12 14
-27z m-1046 1 c-3 -3 -12 -4 -19 -1 -8 3 -5 6 6 6 11 1 17 -2 13 -5z m893 -34
c4 7 18 6 41 -1 39 -14 60 -29 39 -29 -13 0 -13 -2 0 -11 12 -8 11 -9 -5 -5
-57 13 -166 50 -170 57 -3 4 16 1 42 -7 31 -9 49 -11 53 -4z m1675 -160 c41
-24 94 -77 95 -95 0 -5 -21 11 -47 36 -63 59 -90 70 -198 80 l-90 7 100 -2
c86 -1 106 -5 140 -26z m-325 -70 c-8 -5 -19 -10 -25 -10 -5 0 -3 5 5 10 8 5
20 10 25 10 6 0 3 -5 -5 -10z m471 -37 c13 -16 12 -17 -3 -4 -10 7 -18 15 -18
17 0 8 8 3 21 -13z m-3804 -54 c18 -12 38 -29 43 -40 10 -18 7 -19 -44 -19
-92 0 -160 -32 -241 -114 -43 -43 -81 -94 -98 -128 -59 -123 -73 -274 -37
-413 22 -88 24 -99 11 -91 -5 3 -11 -1 -15 -9 -3 -8 -1 -15 4 -15 5 0 12 -11
16 -25 3 -14 10 -25 16 -25 5 0 6 -5 2 -12 -5 -7 -2 -9 9 -5 9 3 18 0 21 -9 9
-23 -29 -17 -62 11 -66 55 -118 239 -107 380 16 213 101 392 229 480 97 67
182 78 253 34z m1638 -124 c221 -78 354 -281 355 -540 0 -143 -56 -317 -118
-366 -31 -24 -78 -25 -86 -2 -6 14 -9 14 -27 -5 -39 -42 -39 -21 0 28 56 71
90 145 108 240 47 239 -84 475 -305 549 -102 35 -216 24 -329 -30 -63 -30
-164 -131 -197 -198 -85 -166 -87 -397 -6 -551 l29 -55 -29 34 c-33 39 -76
153 -85 226 -15 119 34 321 106 440 42 70 143 167 210 200 118 60 257 71 374
30z m1505 -65 c0 -5 -3 -10 -7 -10 -5 0 -17 -18 -27 -40 -11 -22 -21 -38 -24
-35 -7 7 39 95 50 95 4 0 8 -4 8 -10z m-3108 -107 c40 -38 39 -93 -1 -134 -37
-36 -79 -38 -118 -5 -22 19 -28 32 -28 66 0 35 6 47 33 71 41 37 77 37 114 2z
m1253 -135 c58 -26 71 -103 26 -149 -41 -41 -90 -40 -125 2 -37 43 -34 83 8
125 37 37 51 40 91 22z m-2158 -70 c-3 -8 -6 -5 -6 6 -1 11 2 17 5 13 3 -3 4
-12 1 -19z m-60 -90 c-3 -8 -6 -5 -6 6 -1 11 2 17 5 13 3 -3 4 -12 1 -19z
m723 -23 c30 -16 60 -61 60 -90 0 -30 -29 -72 -59 -84 -44 -19 -82 3 -99 55
-20 63 9 121 66 133 2 1 16 -6 32 -14z m1391 -161 c60 -31 72 -124 21 -164
-62 -49 -142 -2 -142 84 0 44 12 66 45 84 27 15 41 15 76 -4z m-2202 -113 l24
-18 -56 -27 c-62 -29 -67 -30 -67 -16 0 11 59 80 69 80 3 0 17 -9 30 -19z
m179 -90 c117 -64 282 -167 282 -177 0 -4 -15 -23 -32 -43 -18 -20 -40 -47
-49 -61 l-16 -24 -74 22 c-104 31 -315 72 -374 73 -94 1 -95 6 -25 87 35 40
66 72 69 72 3 0 20 12 36 26 l30 26 -45 -25 c-41 -22 -130 -44 -130 -32 0 2
17 13 38 24 20 10 62 35 92 55 30 20 63 36 73 36 10 0 66 -26 125 -59z m4883
-14 c-10 -9 -11 -8 -5 6 3 10 9 15 12 12 3 -3 0 -11 -7 -18z m-998 -97 c6 -8
0 -4 -15 8 -14 13 -29 35 -32 48 -4 13 -11 24 -17 24 -6 0 -7 5 -3 11 3 6 17
-7 31 -33 14 -23 30 -50 36 -58z m973 43 c-8 -15 -15 -25 -16 -21 0 12 23 58
27 54 3 -2 -2 -17 -11 -33z m-3950 -44 c62 -11 142 -49 170 -80 15 -17 15 -21
1 -42 -9 -13 -13 -35 -10 -50 4 -18 -1 -34 -11 -46 -20 -22 -137 -84 -186 -99
-45 -13 -213 -23 -185 -11 14 7 9 8 -18 3 -29 -4 -37 -2 -31 7 5 8 3 10 -6 4
-9 -5 -22 2 -38 21 -13 16 -21 23 -18 17 5 -8 2 -11 -8 -7 -8 3 -12 12 -9 20
3 8 2 14 -3 13 -24 -4 -29 5 -31 52 -5 102 56 164 190 193 79 18 119 19 193 5z
m3897 -50 c-56 -104 -247 -279 -307 -283 -14 0 -24 -5 -23 -11 1 -5 -8 -9 -21
-8 -15 2 -21 -1 -16 -9 4 -6 3 -9 -2 -6 -5 3 -18 8 -29 12 -17 6 -10 11 35 30
82 34 154 83 258 176 12 12 22 18 22 14 0 -9 55 61 81 103 32 51 34 39 2 -18z
m-1398 -49 c3 -6 -1 -7 -9 -4 -18 7 -21 14 -7 14 6 0 13 -4 16 -10z m991 -9
c-6 -9 -96 -43 -96 -36 0 5 72 37 98 44 2 1 1 -3 -2 -8z m-4620 -57 c9 -11 13
-12 16 -2 4 10 21 10 91 0 75 -11 275 -56 283 -64 1 -2 -1 -19 -5 -38 -8 -39
7 -34 -190 -60 -52 -7 -124 -20 -160 -30 -36 -10 -68 -17 -70 -15 -3 4 7 63
25 145 l5 25 -16 -25 c-16 -24 -16 -24 -12 -2 4 17 1 22 -15 22 -10 0 -16 5
-13 10 3 6 2 10 -3 10 -5 0 -17 -15 -26 -34 -14 -30 -46 -67 -46 -53 0 13 42
113 53 125 14 17 67 8 83 -14z m372 -226 c2 -20 -3 -47 -10 -60 -7 -13 -11
-27 -10 -31 1 -5 -2 -6 -7 -3 -5 4 -12 2 -16 -4 -3 -5 -1 -10 6 -10 7 0 9 -3
5 -7 -4 -4 -15 -8 -24 -8 -9 0 -16 -6 -14 -13 2 -9 -4 -11 -18 -7 -14 4 -20 2
-20 -9 0 -9 -6 -13 -14 -10 -8 3 -25 0 -37 -7 -12 -6 -48 -11 -78 -11 -31 1
-68 -1 -83 -4 -27 -5 -28 -6 -12 -36 9 -17 12 -28 7 -25 -31 19 -93 201 -75
218 23 20 298 70 367 66 27 -2 30 -6 33 -39z m4227 25 c-30 -7 -43 -23 -19
-23 18 -1 18 -1 1 -11 -18 -10 -82 -23 -196 -38 -118 -16 -310 17 -325 55 -7
18 -1 18 19 -2 12 -13 45 -17 150 -21 134 -5 222 4 302 33 21 7 49 13 63 12
20 0 21 -1 5 -5z m-2320 -23 c3 -5 1 -10 -4 -10 -6 0 -11 5 -11 10 0 6 2 10 4
10 3 0 8 -4 11 -10z m26 -112 c6 -11 4 -18 -6 -22 -12 -4 -15 3 -14 32 0 20 3
30 6 22 3 -8 10 -22 14 -32z m1461 -153 c-7 -12 -20 30 -20 65 0 19 3 15 13
-15 7 -22 10 -44 7 -50z m-3357 65 c3 -5 1 -10 -4 -10 -6 0 -11 5 -11 10 0 6
2 10 4 10 3 0 8 -4 11 -10z m1745 -10 c-6 -11 -12 -20 -13 -20 -2 0 -3 9 -3
20 0 11 6 20 13 20 11 0 11 -5 3 -20z m1754 4 c3 -8 2 -12 -4 -9 -6 3 -10 10
-10 16 0 14 7 11 14 -7z m-3524 -3 c0 -5 -44 -17 -97 -26 -54 -10 -108 -21
-120 -26 -16 -6 -23 -5 -24 4 0 9 -2 9 -6 0 -2 -7 -9 -13 -15 -13 -7 0 -7 5 1
13 6 8 55 19 113 27 57 7 112 16 123 21 11 4 21 8 23 8 1 1 2 -3 2 -8z m158
-46 c-3 -3 -9 2 -12 12 -6 14 -5 15 5 6 7 -7 10 -15 7 -18z m1957 10 c16 -4
25 -12 25 -24 0 -26 10 -51 21 -51 5 0 9 16 9 35 0 22 5 35 13 35 7 0 82 -9
167 -19 85 -11 191 -22 236 -26 44 -4 85 -10 90 -13 15 -10 44 -55 44 -67 0
-5 -5 -3 -11 5 -8 12 -9 10 -4 -8 6 -20 4 -23 -12 -18 -10 3 -133 15 -273 27
-269 23 -316 32 -334 64 -6 11 -19 33 -29 48 l-19 28 26 -6 c14 -3 37 -7 51
-10z m-2410 -25 c13 -6 15 -9 5 -9 -8 0 -22 4 -30 9 -18 12 -2 12 25 0z m2017
-9 c-12 -10 -19 -20 -16 -23 3 -3 -1 -8 -8 -11 -8 -3 -14 2 -14 13 0 10 3 17
7 14 4 -2 12 3 19 11 7 8 17 15 23 15 5 0 0 -8 -11 -19z m-2332 -24 c242 -28
370 -37 370 -26 0 11 174 39 244 39 65 0 66 0 108 -46 23 -25 65 -59 93 -75
32 -18 43 -29 30 -29 -43 0 3 -19 54 -22 44 -2 55 -7 57 -21 3 -23 14 -35 14
-16 0 11 2 11 10 -1 17 -26 12 -50 -10 -50 -11 0 -102 -27 -202 -61 -302 -100
-600 -257 -838 -442 -65 -51 -78 -62 -204 -178 -154 -143 -365 -416 -464 -600
-17 -31 -44 -80 -60 -110 -111 -198 -230 -581 -262 -839 -14 -120 -12 -325 5
-465 66 -527 410 -1019 829 -1185 63 -25 60 -26 133 20 28 18 61 -3 88 -56 11
-21 30 -54 43 -73 12 -19 28 -54 34 -78 5 -24 12 -43 15 -43 2 0 17 7 32 15
26 13 35 13 77 -1 27 -9 56 -18 64 -20 9 -3 0 -13 -27 -28 -104 -59 -265 -141
-342 -172 -46 -19 -147 -64 -226 -99 -78 -36 -148 -65 -154 -65 -21 0 -208
-58 -261 -81 l-51 -22 -72 28 c-40 15 -148 65 -242 110 -93 45 -252 119 -352
165 -100 45 -181 86 -179 89 2 3 -7 7 -21 8 -14 0 -30 6 -35 11 -17 17 58 33
88 20 22 -10 22 -12 6 -24 -15 -12 -13 -13 14 -8 20 4 43 0 64 -11 30 -15 31
-17 13 -30 -17 -13 -16 -14 12 -16 17 -1 37 -2 46 -3 9 -1 23 -7 32 -15 10 -7
17 -11 17 -7 0 3 21 -7 48 -22 26 -16 73 -40 104 -55 31 -15 59 -31 63 -37 3
-5 12 -7 19 -4 8 3 17 0 22 -7 5 -8 3 -10 -7 -4 -8 5 -11 4 -6 -1 5 -5 19 -9
30 -9 12 0 21 -5 20 -11 -2 -10 233 -107 248 -102 20 7 -14 27 -121 72 -168
72 -455 211 -477 232 -11 11 -46 33 -77 49 -32 17 -59 33 -61 36 -2 3 36 22
84 43 48 21 112 56 141 78 53 40 53 40 87 24 47 -23 49 -20 13 16 -82 86 -170
191 -170 205 0 16 10 15 83 -3 27 -6 28 -5 21 22 -4 16 -10 30 -14 32 -18 7 5
69 37 97 27 24 37 44 52 102 25 103 15 171 -33 221 -19 20 -56 60 -81 88 -42
47 -165 127 -165 106 0 -4 19 -19 42 -32 76 -42 107 -71 134 -126 15 -30 37
-63 50 -73 19 -15 24 -28 24 -67 0 -48 -11 -104 -31 -155 -10 -25 -10 -25 -85
49 -67 65 -75 78 -70 102 5 25 -1 31 -52 64 -31 19 -73 50 -92 67 -19 18 -59
42 -87 55 -46 21 -53 28 -53 52 0 41 7 43 47 16 20 -13 44 -24 55 -24 29 0 73
26 92 54 18 29 22 131 5 142 -20 12 -33 -15 -30 -63 4 -85 -47 -114 -130 -74
-33 16 -46 18 -71 9 -29 -10 -30 -13 -25 -54 6 -57 15 -67 107 -115 42 -22
103 -63 134 -92 50 -47 56 -57 56 -92 0 -51 7 -61 48 -70 22 -4 41 -19 57 -43
38 -55 34 -62 -36 -62 -37 0 -58 -4 -54 -10 3 -5 23 -10 43 -10 75 0 83 -40
13 -61 -65 -20 -56 -56 41 -155 l60 -61 -37 -30 c-20 -17 -48 -36 -63 -44 -15
-7 -51 -28 -80 -46 -44 -28 -130 -59 -217 -80 -15 -3 -29 8 -56 44 -54 70
-213 358 -279 503 -32 69 -73 157 -93 196 -36 72 -147 339 -147 355 0 5 25 9
57 9 75 0 195 24 318 62 93 29 105 36 167 96 78 75 112 133 97 166 -6 11 -33
36 -60 54 -27 18 -47 37 -44 42 4 6 23 19 43 29 83 43 108 90 137 259 11 62
24 106 31 109 8 3 29 -5 49 -17 19 -12 39 -18 45 -15 6 4 28 44 49 88 21 45
61 117 89 161 29 43 52 86 52 95 0 27 24 53 61 65 46 15 59 46 59 142 0 87 5
98 63 122 23 10 27 18 27 50 0 28 6 44 25 60 14 12 25 30 25 41 0 10 -25 47
-56 81 -53 60 -56 65 -50 104 7 41 32 86 54 94 6 2 22 -18 36 -45 14 -26 25
-41 25 -33 0 8 -6 26 -14 40 -22 39 -18 63 23 131 21 35 44 80 51 99 35 96 56
129 88 140 52 18 103 84 117 153 4 18 13 27 26 27 45 0 97 31 119 70 19 35 27
40 58 40 27 0 47 10 88 45 67 58 96 122 103 225 4 68 1 82 -26 143 -17 37 -36
67 -43 67 -7 0 1 15 19 33 22 22 41 63 66 138 20 59 36 114 36 124 0 15 7 17
48 12 26 -3 148 -16 272 -30z m1250 -11 c0 -2 -9 -6 -20 -9 -11 -3 -18 -1 -14
4 5 9 34 13 34 5z m2367 -28 c74 -11 131 -25 130 -31 -1 -6 9 -13 23 -17 25
-6 25 -6 3 -12 -13 -3 -23 -2 -23 3 0 5 -7 9 -15 9 -8 0 -15 -4 -15 -10 0 -5
3 -10 8 -10 4 0 7 -20 7 -45 0 -25 -3 -45 -7 -45 -5 0 -8 6 -9 13 0 8 -2 8 -6
-2 -5 -11 -7 -11 -14 0 -7 11 -9 9 -9 -6 0 -12 -5 -26 -12 -33 -9 -9 -9 -12 0
-12 7 0 12 -7 12 -16 0 -14 -3 -14 -15 -4 -11 9 -15 9 -15 1 0 -19 32 -26 44
-9 12 16 36 13 36 -4 0 -5 -6 -8 -12 -5 -7 2 -24 -6 -38 -18 -30 -27 -81 -46
-64 -24 6 8 14 23 18 34 5 14 -1 11 -18 -10 -14 -16 -24 -35 -21 -41 2 -6 -4
-11 -13 -10 -9 0 -21 -9 -27 -21 -7 -13 -14 -20 -18 -17 -3 3 -14 1 -24 -6
-16 -10 -16 -10 5 -5 24 7 25 5 16 -19 -4 -11 -11 -13 -31 -5 -16 6 -30 5 -41
-1 -15 -10 -14 -10 3 -6 11 3 26 2 33 -3 9 -5 -7 -9 -41 -10 -31 0 -67 -5 -81
-11 -14 -5 -27 -6 -27 -2 -1 4 -5 -6 -8 -23 -5 -21 -10 5 -15 85 l-8 115 32
52 c28 45 32 59 28 101 -3 27 -12 63 -21 82 l-17 33 68 -7 c37 -3 126 -16 199
-28z m-2447 11 c0 6 5 11 10 11 15 0 12 -17 -4 -23 -8 -3 -20 2 -28 11 -12 15
-11 16 5 3 11 -9 17 -10 17 -2z m3050 -42 c0 -4 -5 -5 -11 -1 -7 4 -10 1 -7
-7 3 -8 10 -14 16 -14 6 0 17 -6 24 -13 11 -11 9 -12 -11 -4 -14 5 -36 24 -50
43 -25 33 -25 34 -2 14 l24 -20 -7 25 c-7 24 -6 24 8 6 9 -11 16 -24 16 -29z
m-3080 2 c0 -5 -4 -9 -10 -9 -5 0 -10 7 -10 16 0 8 5 12 10 9 6 -3 10 -10 10
-16z m1260 9 c0 -9 4 -8 11 2 8 11 12 12 16 3 3 -8 14 -11 29 -7 15 4 24 2 24
-5 0 -7 20 -11 49 -11 26 0 73 -5 102 -10 30 -6 151 -19 269 -30 118 -10 245
-22 281 -26 l66 -6 17 -157 c10 -86 20 -228 23 -317 l6 -161 -81 -62 c-44 -33
-83 -65 -86 -70 -10 -15 22 -118 59 -191 46 -91 93 -142 171 -186 42 -24 64
-42 64 -54 0 -43 -30 -172 -50 -209 -19 -38 -40 -54 -40 -31 0 6 -7 10 -15 10
-8 0 -39 11 -68 24 -54 24 -67 41 -67 93 0 25 -52 89 -79 98 -13 4 -30 43 -59
133 -48 148 -155 352 -246 467 -76 97 -215 230 -296 283 -36 24 -103 61 -150
84 -47 23 -92 46 -100 53 -17 13 -179 65 -204 65 -9 0 -16 5 -16 10 0 6 9 10
20 10 52 0 236 107 299 174 37 38 51 44 51 24z m-1069 -15 c0 -5 2 -16 4 -26
2 -11 0 -16 -3 -12 -4 4 -7 11 -7 16 0 5 -3 9 -7 9 -5 0 -8 -3 -7 -6 1 -8 -23
-24 -36 -24 -5 0 -3 5 5 10 8 5 11 10 6 10 -11 0 25 29 37 30 4 0 7 -3 8 -7z
m-344 -9 c-3 -3 -12 -4 -19 -1 -8 3 -5 6 6 6 11 1 17 -2 13 -5z m120 0 c-3 -3
-12 -4 -19 -1 -8 3 -5 6 6 6 11 1 17 -2 13 -5z m3047 -102 c13 -40 22 -72 19
-72 -2 0 -9 13 -14 30 -6 16 -15 28 -19 25 -5 -3 -11 -1 -15 5 -3 5 -1 10 6
10 6 0 9 8 6 18 -30 93 -16 81 17 -16z m-2868 45 c4 -4 2 -7 -5 -7 -7 0 -9 -5
-6 -10 4 -6 11 -8 16 -5 5 3 6 -1 3 -9 -3 -9 -1 -16 6 -16 6 0 9 -4 6 -8 -3
-5 8 -46 24 -93 17 -46 30 -102 30 -125 0 -37 -4 -42 -39 -62 -57 -32 -100
-29 -138 11 -41 43 -78 119 -104 212 -11 42 -19 78 -17 79 1 1 39 8 83 15 44
7 84 16 88 20 9 9 44 8 53 -2z m699 -37 c4 -6 -10 -10 -37 -9 -40 1 -41 2 -13
9 43 11 43 11 50 0z m58 3 c-7 -2 -19 -2 -25 0 -7 3 -2 5 12 5 14 0 19 -2 13
-5z m-708 -43 c3 -5 1 -10 -4 -10 -6 0 -11 5 -11 10 0 6 2 10 4 10 3 0 8 -4
11 -10z m284 -10 c65 -21 180 -42 236 -44 17 -1 36 -5 44 -10 10 -7 12 -6 6 4
-5 9 -4 11 3 6 7 -4 12 -14 12 -22 0 -9 5 -12 12 -8 8 5 10 -14 5 -77 -6 -81
-25 -141 -50 -155 -9 -5 -9 -4 -1 5 8 9 9 22 1 44 -19 61 -26 73 -20 37 3 -19
9 -42 14 -50 18 -36 -48 -80 -118 -80 -51 0 -120 72 -156 163 -33 81 -68 207
-59 207 4 0 36 -9 71 -20z m2087 -7 c-10 -10 -19 5 -10 18 6 11 8 11 12 0 2
-7 1 -15 -2 -18z m-4268 -42 c35 -11 65 -35 54 -45 -3 -4 1 -4 10 -1 9 4 18 0
22 -10 4 -11 2 -14 -7 -9 -9 6 -9 4 -1 -7 24 -29 26 -93 6 -144 -22 -55 -42
-70 -42 -31 0 31 -25 26 -34 -7 -6 -19 -11 -14 -35 34 -15 31 -36 67 -46 80
l-17 24 5 -27 c6 -39 -8 -35 -37 10 -41 62 -42 85 -6 116 34 28 71 33 128 17z
m1938 -25 c-3 -14 -1 -28 5 -31 6 -4 8 -14 5 -22 -3 -8 -1 -11 4 -8 6 3 7 18
4 33 -4 21 -3 24 5 12 6 -8 11 -31 11 -50 0 -26 -3 -31 -10 -20 -8 12 -10 10
-11 -10 -1 -14 -7 1 -16 34 -13 56 -12 86 3 86 3 0 3 -11 0 -24z m2878 -64
c-6 -7 -69 19 -94 38 -19 16 -11 14 36 -7 34 -16 60 -30 58 -31z m-3439 -12
c-16 -11 -25 -20 -20 -21 6 -1 -1 -5 -15 -9 -22 -7 -21 -8 12 -9 20 -1 40 -5
43 -11 5 -9 -36 -6 -73 6 -7 2 -24 -2 -37 -8 -21 -9 -29 -9 -41 4 -14 14 -7
18 63 41 95 31 107 33 68 7z m2800 10 c-3 -5 -15 -10 -26 -10 -10 0 -19 5 -19
10 0 6 12 10 26 10 14 0 23 -4 19 -10z m108 -16 c-4 -12 -8 -12 -13 -4 -4 7
-13 9 -20 5 -9 -6 -9 -9 0 -15 8 -5 1 -16 -22 -34 -45 -33 -59 -34 -19 -1 16
14 28 32 25 39 -3 7 5 17 18 23 28 13 39 8 31 -13z m-2764 -99 c1 -5 -3 -3 -9
5 -5 8 -12 11 -16 7 -4 -4 1 -16 11 -27 21 -24 14 -27 -10 -4 -9 9 -13 24 -10
34 7 21 -20 40 -45 33 -11 -3 -12 -2 -2 5 8 5 10 16 6 28 -4 10 11 -1 34 -26
23 -25 41 -49 41 -55z m1261 75 c18 -12 2 -12 -25 0 -13 6 -15 9 -5 9 8 0 22
-4 30 -9z m-3002 -11 c20 -7 42 -28 63 -60 30 -47 31 -53 25 -111 -4 -35 -15
-72 -26 -85 l-18 -23 -43 48 c-25 26 -55 61 -67 77 -15 19 -19 22 -12 8 6 -13
7 -23 3 -23 -4 0 3 -9 15 -20 12 -12 22 -24 22 -28 -1 -4 -21 16 -46 43 -39
44 -44 54 -40 85 7 43 35 82 67 91 13 4 24 7 25 8 1 1 15 -4 32 -10z m3056
-25 c9 -8 22 -12 28 -8 10 5 10 4 2 -5 -8 -9 -18 -10 -30 -3 -11 5 -25 7 -31
5 -14 -5 -18 9 -6 20 10 11 20 8 37 -9z m-1689 -10 c-11 -8 -30 -17 -42 -21
-13 -3 -23 -9 -23 -14 0 -5 8 -6 18 -3 14 5 15 4 2 -5 -19 -14 0 -14 34 -1 14
5 26 7 26 5 0 -3 -12 -10 -27 -16 -20 -7 -33 -7 -49 2 -18 9 -30 8 -63 -7 -29
-13 -37 -20 -28 -27 9 -6 8 -7 -4 -4 -9 3 -22 1 -30 -4 -12 -7 -12 -9 1 -9 8
0 2 -9 -15 -20 -39 -26 -20 -26 23 0 17 11 32 15 32 10 0 -6 -3 -10 -7 -10 -5
0 -24 -14 -43 -30 -40 -34 -43 -35 -60 -15 -14 17 -65 21 -55 5 3 -5 -3 -10
-14 -10 -11 0 -23 -4 -26 -10 -3 -6 2 -7 12 -4 10 3 1 -4 -19 -16 -21 -11 -38
-27 -38 -35 0 -8 -2 -15 -4 -15 -2 0 -13 -3 -23 -7 -17 -6 -17 -5 1 15 11 12
14 22 9 22 -6 0 -16 -7 -23 -15 -7 -8 -18 -15 -25 -15 -7 0 -18 -7 -25 -15
-15 -18 1 -20 18 -3 9 9 12 9 12 0 0 -7 -5 -12 -11 -12 -5 0 -7 -5 -3 -11 5
-8 1 -8 -14 0 -28 15 -27 15 -30 -21 -1 -18 -10 -38 -18 -45 -20 -14 -47 -5
-40 13 7 17 -6 18 -22 2 -10 -10 -7 -15 10 -26 22 -12 22 -13 -9 -9 -19 2 -33
-1 -34 -7 0 -6 -3 -5 -6 2 -2 6 -10 9 -16 5 -7 -3 -9 -3 -5 1 3 4 9 7 12 7 4
-1 18 9 33 23 14 13 37 30 52 38 14 7 29 18 34 25 24 38 302 198 487 282 54
24 62 26 35 5z m195 12 c0 -3 -4 -8 -10 -11 -5 -3 -10 -1 -10 4 0 6 5 11 10
11 6 0 10 -2 10 -4z m1420 -49 c0 -6 -3 -7 -7 -4 -3 4 -13 1 -21 -6 -12 -10
-16 -9 -20 2 -3 9 -24 -8 -63 -50 -32 -35 -58 -61 -59 -58 0 3 12 19 26 35 14
16 33 40 42 54 9 14 28 37 41 52 l25 27 18 -21 c10 -12 18 -26 18 -31z m145
15 c-3 -3 -11 0 -18 7 -9 10 -8 11 6 5 10 -3 15 -9 12 -12z m-1665 -39 c-1
-32 -3 -35 -13 -22 -7 9 -18 18 -26 20 -11 4 -10 8 3 22 27 26 36 21 36 -20z
m1630 33 c0 -2 -7 -7 -16 -10 -8 -3 -12 -2 -9 4 6 10 25 14 25 6z m94 -27 c5
-4 -3 -6 -17 -6 -15 1 -27 5 -27 9 0 9 24 17 30 9 3 -3 9 -9 14 -12z m-1571
-6 c-7 -2 -19 -2 -25 0 -7 3 -2 5 12 5 14 0 19 -2 13 -5z m2524 -25 c-3 -8 -6
-5 -6 6 -1 11 2 17 5 13 3 -3 4 -12 1 -19z m88 12 c-11 -5 -27 -9 -35 -9 -9 0
-8 4 5 9 11 5 27 9 35 9 9 0 8 -4 -5 -9z m-1330 -39 c-3 -6 -11 -11 -16 -11
-5 0 -4 6 3 14 14 16 24 13 13 -3z m359 7 c-5 -7 -2 -9 8 -6 8 4 15 0 15 -7 0
-10 -5 -11 -19 -4 -10 5 -24 7 -31 4 -6 -4 -3 1 7 9 23 19 30 20 20 4z m-1451
-16 c15 -17 15 -18 -3 -19 -14 -1 -20 5 -20 18 0 24 3 24 23 1z m507 -2 c6
-11 7 -20 2 -20 -6 0 -12 9 -15 20 -3 11 -3 20 -1 20 2 0 8 -9 14 -20z m-60
-20 c0 -5 -5 -10 -11 -10 -5 0 -7 5 -4 10 3 6 8 10 11 10 2 0 4 -4 4 -10z
m-2406 -20 c14 -5 32 -20 41 -34 22 -33 37 -100 25 -104 -6 -2 -10 -27 -10
-55 0 -47 -3 -53 -27 -64 -22 -11 -29 -10 -45 4 -17 15 -18 15 -18 -12 0 -27
0 -27 -25 -11 -18 12 -25 13 -25 4 0 -21 -26 14 -39 51 -32 96 12 231 75 231
12 0 34 -4 48 -10z m2041 0 c3 -5 -1 -10 -9 -10 -10 0 -13 -6 -10 -15 4 -8 1
-15 -5 -15 -18 0 -25 31 -10 41 18 11 26 11 34 -1z m-675 -10 c12 -8 11 -10
-7 -10 -13 0 -23 5 -23 10 0 13 11 13 30 0z m1136 -1 c3 -6 1 -16 -5 -22 -9
-9 -14 -8 -21 3 -9 15 -4 30 10 30 5 0 12 -5 16 -11z m464 8 c0 -2 -12 -14
-27 -28 -24 -22 -24 -13 0 19 8 11 27 17 27 9z m-599 -33 c7 -8 21 -13 31 -11
10 3 18 1 18 -4 0 -15 -37 -10 -54 6 -10 10 -25 14 -43 10 -23 -4 -24 -4 -8 4
29 14 41 13 56 -5z m182 -29 c36 -36 38 -42 8 -25 -13 7 -23 4 -38 -9 -19 -18
-19 -18 -17 23 2 58 0 58 47 11z m507 5 c0 -11 -4 -20 -10 -20 -5 0 -10 9 -10
20 0 11 5 20 10 20 6 0 10 -9 10 -20z m4085 -21 c-41 -36 -65 -77 -57 -98 3
-10 -2 -12 -20 -8 -30 8 -43 -2 -23 -17 13 -9 10 -22 -17 -93 -28 -73 -35 -83
-56 -83 -22 0 -24 3 -18 33 8 38 67 167 97 209 25 34 95 88 116 88 7 0 -2 -14
-22 -31z m-4259 -5 c-30 -21 -42 -17 -15 5 13 11 26 17 29 14 3 -2 -4 -11 -14
-19z m715 -11 c13 -16 12 -17 -3 -4 -10 7 -18 15 -18 17 0 8 8 3 21 -13z
m-1051 -23 c0 -5 -4 -10 -10 -10 -5 0 -10 5 -10 10 0 6 5 10 10 10 6 0 10 -4
10 -10z m300 -1 c12 -8 10 -9 -8 -4 -12 4 -22 3 -21 -2 5 -27 -3 -53 -16 -53
-8 0 -15 -4 -15 -10 0 -15 -60 -12 -76 4 -21 22 -18 26 21 26 19 0 35 5 35 10
0 6 12 11 28 11 27 2 27 2 2 7 l-25 5 25 8 c35 10 33 10 50 -2z m-111 -15 c9
-8 -75 -3 -88 5 -8 5 5 7 35 4 27 -3 51 -7 53 -9z m-212 -10 c-3 -3 -12 -4
-19 -1 -8 3 -5 6 6 6 11 1 17 -2 13 -5z m1157 -53 c-4 -5 -43 41 -44 52 0 4
11 -5 24 -20 13 -15 23 -30 20 -32z m923 33 c-3 -3 -12 -4 -19 -1 -8 3 -5 6 6
6 11 1 17 -2 13 -5z m786 -84 c21 -30 22 -46 3 -28 -8 7 -13 15 -13 18 1 3
-10 21 -26 41 -15 20 -27 39 -27 43 0 8 37 -35 63 -74z m-620 63 c-7 -2 -19
-2 -25 0 -7 3 -2 5 12 5 14 0 19 -2 13 -5z m-2133 -24 c10 -6 1 -8 -27 -9 -41
0 -65 14 -41 23 14 6 45 -1 68 -14z m260 6 c0 -8 -9 -15 -20 -15 -22 0 -27 15
-7 23 21 9 27 7 27 -8z m775 -14 c-6 -5 -25 10 -25 20 0 5 6 4 14 -3 8 -7 12
-15 11 -17z m988 13 c134 -17 138 -17 152 2 15 19 15 19 8 0 -6 -18 -2 -19 46
-13 64 8 257 -3 240 -14 -9 -5 -2 -18 23 -43 48 -48 99 -174 128 -319 6 -32
10 -61 7 -63 -3 -3 -8 13 -12 35 -7 42 -25 66 -25 34 0 -10 7 -45 15 -76 22
-86 20 -96 -13 -64 -38 37 -46 34 -38 -15 5 -38 4 -40 -7 -21 -10 18 -12 8
-11 -68 1 -58 -2 -94 -10 -102 -7 -7 -15 -21 -18 -32 -3 -11 -9 -28 -13 -37
-5 -13 -2 -18 9 -18 20 0 13 -41 -13 -80 -9 -14 -30 -51 -46 -82 -17 -32 -35
-58 -41 -58 -6 0 -24 -13 -40 -30 -33 -33 -47 -38 -37 -13 4 11 3 14 -6 9 -7
-5 -10 -13 -8 -20 3 -6 -4 -22 -14 -35 -15 -18 -22 -21 -33 -12 -10 8 -16 9
-21 1 -3 -5 1 -10 9 -10 9 0 16 -5 16 -11 0 -7 -9 -9 -24 -5 -16 4 -29 -1 -42
-15 -10 -12 -41 -32 -69 -46 -27 -13 -42 -18 -33 -10 15 12 12 13 -19 14 -25
1 -32 -2 -22 -8 11 -7 11 -9 -3 -9 -21 0 -24 -16 -5 -23 6 -2 2 -2 -10 0 -13
2 -23 -1 -23 -7 0 -5 -5 -10 -11 -10 -5 0 -7 5 -4 10 4 6 -5 10 -20 10 -16 0
-24 4 -20 10 4 6 15 8 26 5 27 -9 48 6 23 16 -32 12 -40 10 -69 -18 -20 -21
-37 -28 -66 -28 -34 0 -39 -3 -36 -17 3 -10 2 -18 -3 -18 -4 0 -10 28 -14 63
-11 96 -43 223 -69 270 -13 23 -29 59 -36 80 -7 20 -19 44 -28 52 -13 13 -12
15 9 15 41 0 125 49 163 95 48 60 84 141 96 220 13 79 8 113 -10 75 -20 -42
-39 -72 -48 -79 -6 -3 -14 -15 -20 -25 -9 -16 -12 -6 -20 55 l-9 74 -12 -45
c-7 -25 -21 -63 -32 -85 l-20 -40 5 56 c6 51 2 64 -46 170 -63 140 -64 142
-82 204 -27 88 -28 102 -12 109 8 3 15 1 15 -3 0 -5 9 -7 20 -4 13 4 27 -3 41
-18 l20 -24 -5 30 -6 30 21 -25 22 -25 -8 24 c-5 16 -4 21 4 17 6 -4 21 0 33
8 13 10 17 16 9 16 -8 0 -12 2 -9 5 3 3 26 -6 53 -20 59 -32 69 -27 15 9 -22
14 -40 28 -40 29 0 9 61 6 183 -9z m-3603 -4 c0 -5 -9 -10 -20 -10 -11 0 -20
5 -20 10 0 6 9 10 20 10 11 0 20 -4 20 -10z m-195 -30 c-3 -5 -11 -10 -16 -10
-6 0 -7 5 -4 10 3 6 11 10 16 10 6 0 7 -4 4 -10z m4346 -42 c17 -24 18 -29 6
-19 -18 14 -42 51 -33 51 3 0 15 -15 27 -32z m-4390 8 c-15 -18 2 -31 26 -21
14 5 14 2 -2 -15 l-19 -21 -8 20 c-5 14 -13 19 -24 14 -15 -6 -15 -4 2 14 21
24 43 31 25 9z m2895 -6 c0 -12 -4 -16 -9 -11 -5 5 -6 14 -3 20 10 15 12 14
12 -9z m62 -47 c29 -41 55 -96 42 -88 -7 5 -9 -2 -5 -22 4 -20 -1 -15 -15 17
-12 24 -26 47 -32 51 -6 4 -7 12 -3 19 4 7 -1 13 -13 17 -13 3 -18 11 -15 19
8 21 19 17 41 -13z m1692 -71 c0 -2 -5 0 -12 4 -8 5 -9 2 -5 -10 4 -11 3 -15
-4 -11 -6 4 -8 13 -5 21 3 7 -1 29 -9 48 -23 56 -17 56 10 1 14 -27 25 -51 25
-53z m-4736 44 c-3 -8 -13 -17 -22 -21 -13 -5 -13 -2 3 15 21 24 26 25 19 6z
m66 4 c0 -5 -5 -10 -11 -10 -5 0 -7 5 -4 10 3 6 8 10 11 10 2 0 4 -4 4 -10z
m-40 -34 c0 -3 -4 -8 -10 -11 -5 -3 -10 -1 -10 4 0 6 5 11 10 11 6 0 10 -2 10
-4z m220 -6 c0 -5 -2 -10 -4 -10 -3 0 -8 5 -11 10 -3 6 -1 10 4 10 6 0 11 -4
11 -10z m6021 -27 c0 -10 2 -29 4 -43 21 -150 25 -205 15 -208 -6 -2 -24 -15
-39 -28 l-29 -24 -12 72 c-12 70 -9 215 5 237 11 18 55 13 56 -6z m-1517 -36
c-4 -12 2 -26 15 -38 12 -11 21 -25 21 -32 0 -7 -16 6 -35 28 -38 43 -44 61
-19 51 12 -5 14 -1 9 17 -5 17 -4 19 4 7 6 -8 8 -23 5 -33z m-4818 21 c5 -7 3
-8 -6 -3 -10 6 -12 4 -7 -8 4 -11 2 -14 -9 -10 -7 3 -14 0 -14 -6 0 -6 5 -11
10 -11 6 0 10 -5 10 -12 0 -9 -3 -9 -12 0 -9 9 -15 9 -27 -1 -14 -11 -15 -10
-1 8 20 29 43 55 46 55 2 0 6 -5 10 -12z m3189 -46 c-8 -8 -25 17 -25 38 0 9
6 6 16 -8 9 -13 13 -26 9 -30z m-3031 14 c-6 -15 -24 -23 -24 -11 0 8 24 34
28 30 1 -1 0 -10 -4 -19z m3050 -42 c3 -8 2 -12 -4 -9 -6 3 -10 -1 -10 -10 0
-11 5 -15 14 -12 10 4 12 0 9 -14 -5 -19 -6 -19 -18 -2 -20 30 -24 51 -12 57
7 2 13 5 13 5 1 1 5 -6 8 -15z m1433 -21 c-3 -10 -5 -4 -5 12 0 17 2 24 5 18
2 -7 2 -21 0 -30z m-4721 9 c0 -10 -8 -18 -17 -18 -13 0 -14 4 -5 18 6 10 13
18 16 18 3 0 6 -8 6 -18z m174 -16 c0 -8 -4 -18 -10 -21 -5 -3 -10 3 -10 14 0
12 5 21 10 21 6 0 10 -6 10 -14z m4765 -238 c43 -119 48 -143 20 -88 -9 17
-22 39 -30 48 -8 9 -21 26 -29 36 -12 18 -14 17 -18 -16 -2 -20 -1 -35 3 -33
16 11 26 -179 10 -203 -16 -25 -23 19 -30 183 -4 88 -10 166 -15 173 -4 7 -9
43 -10 80 l-3 67 30 -65 c16 -36 49 -118 72 -182z m-1188 210 c2 -18 0 -20 -7
-8 -12 18 -13 30 -2 30 4 0 9 -10 9 -22z m-3811 -21 c-14 -13 -22 -28 -18 -32
4 -5 1 -5 -6 -1 -11 6 -8 13 9 32 12 13 26 24 31 24 5 0 -2 -11 -16 -23z
m3351 -29 c-3 -8 -6 -5 -6 6 -1 11 2 17 5 13 3 -3 4 -12 1 -19z m-1900 -14
c-3 -3 -12 -4 -19 -1 -8 3 -5 6 6 6 11 1 17 -2 13 -5z m173 -2 c0 -4 -12 -9
-27 -10 -22 -1 -24 0 -13 8 18 12 40 13 40 2z m200 -2 c12 -8 11 -10 -5 -9
-11 1 -31 5 -45 9 -24 8 -24 8 5 9 17 0 37 -4 45 -9z m163 3 c-7 -2 -19 -2
-25 0 -7 3 -2 5 12 5 14 0 19 -2 13 -5z m-502 -10 c-11 -5 -11 -7 0 -15 11 -7
9 -8 -4 -4 -10 3 -28 6 -40 7 -20 1 -20 2 3 9 29 9 64 12 41 3z m56 -9 c-3 -3
-12 -4 -19 -1 -8 3 -5 6 6 6 11 1 17 -2 13 -5z m462 2 c-2 -2 -22 -6 -44 -9
-27 -4 -35 -3 -25 3 14 9 79 15 69 6z m-639 -16 c8 -5 11 -10 5 -10 -5 0 -17
5 -25 10 -8 5 -10 10 -5 10 6 0 17 -5 25 -10z m662 -11 c-12 -5 -32 -5 -44 0
-18 6 -13 8 22 8 35 0 40 -2 22 -8z m1378 1 c0 -5 3 -16 6 -24 5 -12 2 -15
-10 -10 -9 3 -16 1 -16 -5 0 -6 9 -11 21 -11 11 0 17 -4 14 -10 -11 -17 -53
-12 -57 8 -7 32 3 58 23 59 10 1 19 -2 19 -7z m-2006 -15 c-22 -17 -34 -19
-34 -6 0 5 8 12 18 14 32 9 36 7 16 -8z m656 1 c0 -3 -4 -8 -10 -11 -5 -3 -10
-1 -10 4 0 6 5 11 10 11 6 0 10 -2 10 -4z m76 -42 c-12 -6 -25 -9 -30 -6 -5 3
0 9 12 13 12 5 22 16 23 26 0 16 1 15 8 -2 6 -15 3 -22 -13 -31z m-960 6 c17
0 17 0 -1 -44 -17 -39 -35 -48 -35 -16 0 11 5 20 10 20 6 0 10 9 10 20 0 11
-5 20 -11 20 -5 0 -7 5 -3 12 6 9 9 9 12 0 2 -7 10 -12 18 -12z m93 10 c-6 -5
-18 -6 -26 -3 -19 8 -16 11 13 11 17 0 22 -3 13 -8z m636 -12 c83 -17 185 -72
247 -133 109 -107 161 -224 198 -449 21 -126 21 -130 3 -143 -16 -12 -20 -11
-35 8 -10 11 -15 25 -12 30 3 5 -1 9 -9 9 -8 0 -18 7 -21 16 -4 10 -2 13 7 8
6 -4 2 4 -11 17 -101 109 -132 139 -168 167 -23 18 -51 32 -62 32 -11 0 -35
-19 -57 -45 l-37 -46 -57 61 c-38 40 -64 60 -80 60 -16 0 -48 -25 -103 -82
-47 -49 -83 -78 -85 -70 -3 6 -11 12 -19 12 -8 0 -14 5 -14 10 0 6 -14 24 -30
40 -17 16 -35 41 -40 55 -7 19 -17 25 -41 25 -35 0 -69 -24 -69 -48 0 -8 11
-23 25 -34 44 -34 31 -98 -19 -98 -22 0 -40 -8 -57 -26 -15 -16 -30 -23 -43
-20 -31 8 -45 -11 -39 -50 3 -19 3 -34 0 -34 -4 0 -24 19 -45 41 -34 37 -42
41 -70 34 -40 -8 -42 -25 -2 -25 23 0 33 -7 46 -32 27 -53 27 -87 -2 -136 -22
-37 -28 -42 -36 -28 -11 19 -38 22 -38 4 1 -7 13 -28 28 -45 l28 -33 60 11
c135 23 123 25 188 -30 69 -59 124 -74 175 -48 30 15 33 14 64 -10 17 -15 57
-50 87 -80 52 -50 57 -52 80 -40 214 113 221 113 345 -12 63 -65 78 -70 148
-50 34 9 41 7 80 -20 l43 -29 32 29 c17 16 35 29 39 29 10 -1 63 -77 63 -90 0
-6 12 -10 28 -10 15 0 38 -7 51 -17 23 -16 25 -15 43 6 22 28 24 84 3 101 -13
11 -13 15 -3 21 8 6 -1 9 -25 9 l-38 0 3 43 c3 36 6 42 28 45 104 11 107 12
161 67 29 30 54 53 55 52 2 -1 -1 -20 -6 -41 -10 -46 0 -77 41 -123 16 -19 33
-48 36 -65 3 -16 11 -32 18 -35 7 -2 20 -24 29 -48 11 -27 34 -57 61 -79 24
-20 47 -45 50 -56 4 -11 13 -20 21 -20 10 0 14 14 14 58 0 66 8 102 22 102 6
0 26 -13 45 -30 18 -16 44 -30 57 -30 24 0 71 42 60 53 -4 4 1 25 11 47 10 23
22 37 27 32 5 -5 2 -21 -6 -37 -21 -40 -9 -46 19 -11 12 16 28 26 34 22 5 -4
20 3 31 14 20 20 21 20 48 2 15 -10 48 -26 73 -35 25 -10 55 -26 66 -37 17
-15 22 -16 27 -5 2 7 15 19 27 26 l22 11 -21 -30 c-12 -16 -22 -38 -22 -47 0
-9 -5 -26 -11 -38 -6 -12 -7 -17 -1 -12 5 6 24 37 41 69 59 111 31 32 -46
-133 -141 -300 -248 -506 -260 -503 -7 1 -13 -5 -13 -13 0 -9 -18 -40 -40 -68
-22 -29 -55 -84 -75 -121 -19 -37 -58 -92 -86 -121 -28 -30 -77 -89 -109 -132
-36 -48 -83 -97 -125 -128 -37 -27 -99 -88 -137 -135 -60 -73 -84 -93 -167
-141 -53 -30 -126 -77 -163 -103 -64 -45 -70 -47 -113 -40 -30 4 -50 2 -60 -6
-20 -17 -217 -110 -232 -110 -7 0 -13 -4 -13 -10 0 -18 19 -11 146 51 84 41
133 59 151 57 l28 -4 -25 -11 c-14 -6 -65 -30 -115 -53 -49 -23 -142 -64 -205
-90 -63 -26 -173 -73 -245 -105 -71 -31 -220 -88 -330 -125 -110 -37 -254 -89
-320 -115 -174 -69 -789 -275 -819 -275 -5 0 -3 7 4 15 10 13 1 20 -64 51 -42
20 -93 37 -114 37 -44 2 -184 -42 -176 -54 3 -5 -1 -6 -9 -4 -7 3 -19 -5 -27
-19 -7 -14 -18 -23 -23 -19 -6 3 -7 1 -4 -4 4 -6 0 -13 -8 -17 -8 -3 -15 -10
-15 -15 0 -5 35 9 78 30 104 54 180 67 252 45 99 -29 111 -51 20 -34 -124 23
-246 -11 -333 -91 l-44 -41 -11 57 c-6 32 -14 80 -17 107 -10 90 -56 138 -147
154 l-43 8 33 18 c18 9 79 33 135 52 56 19 111 38 122 43 11 4 47 17 80 28 91
31 158 62 297 135 69 37 148 76 175 87 38 15 179 90 283 149 8 5 24 37 36 71
28 81 38 89 29 23 -8 -58 -7 -59 55 -37 56 20 67 19 73 -5 5 -20 7 -20 39 -7
18 8 53 32 77 55 91 84 118 82 188 -14 36 -50 61 -72 98 -91 28 -13 39 -21 25
-18 -65 14 -140 17 -140 6 0 -6 4 -11 8 -11 25 0 235 -31 243 -35 5 -4 14 -3
21 1 8 5 6 10 -8 16 -15 7 -13 7 6 3 25 -6 169 -19 342 -31 l87 -6 -163 -83
c-113 -57 -180 -85 -216 -90 -29 -4 -76 -17 -104 -30 -28 -12 -63 -25 -78 -29
-16 -3 -28 -11 -28 -16 0 -14 9 -13 76 11 32 11 97 32 144 45 47 14 105 38
130 54 25 16 56 33 70 38 14 5 64 28 111 51 48 22 95 41 105 41 11 0 25 4 33
9 19 12 -30 18 -264 31 -232 14 -285 21 -352 53 l-52 24 112 27 c150 37 307
84 322 96 7 6 37 17 66 26 145 42 515 249 634 355 28 24 68 58 90 74 21 16 48
38 58 48 25 25 37 9 37 -49 0 -30 -8 -52 -31 -83 -25 -35 -29 -47 -21 -69 l8
-26 34 50 c19 27 59 75 89 107 81 84 87 108 41 161 l-30 34 32 40 c98 121 138
177 206 291 82 137 155 292 144 302 -4 4 -113 28 -242 53 -238 47 -633 137
-791 179 l-87 23 -83 -107 c-171 -221 -417 -387 -641 -434 -143 -30 -317 -12
-433 44 -156 77 -239 206 -284 440 -17 86 -17 110 -6 241 14 173 42 274 129
463 67 146 252 401 340 469 23 18 60 49 83 70 88 79 310 169 463 187 82 10
217 5 295 -11z m195 18 c0 -3 -4 -8 -10 -11 -5 -3 -10 -1 -10 4 0 6 5 11 10
11 6 0 10 -2 10 -4z m1244 -3 c-5 -5 -12 -12 -16 -18 -4 -6 -8 -2 -8 8 0 9 7
17 17 17 9 0 12 -3 7 -7z m3183 0 c-4 -3 -2 -11 3 -18 17 -20 60 -145 50 -145
-5 0 -25 -14 -45 -31 -20 -18 -37 -30 -39 -28 -10 10 -46 135 -46 159 0 26 20
52 50 63 22 8 34 8 27 0z m-4317 -23 c0 -5 -7 -10 -16 -10 -8 0 -12 5 -9 10 3
6 10 10 16 10 5 0 9 -4 9 -10z m-2325 -20 c3 -5 -2 -10 -12 -10 -15 0 -16 -2
-3 -11 13 -9 12 -10 -2 -5 -13 4 -18 0 -18 -15 0 -11 -7 -22 -15 -25 -8 -4
-12 -10 -9 -15 3 -5 1 -9 -5 -9 -5 0 -20 -21 -33 -46 -12 -25 -24 -41 -26 -35
-4 12 99 180 110 181 4 0 10 -4 13 -10z m2289 -6 c5 -13 3 -14 -6 -7 -7 6 -20
13 -28 16 -10 4 -8 6 6 6 12 1 25 -6 28 -15z m1214 -3 c11 -7 11 -9 -1 -14
-16 -6 -27 0 -27 15 0 10 11 10 28 -1z m-3448 -38 c0 -10 -4 -11 -19 -3 -30
16 -33 28 -6 22 14 -2 25 -11 25 -19z m1170 -23 c0 -5 -7 -7 -15 -4 -8 4 -15
8 -15 10 0 2 7 4 15 4 8 0 15 -4 15 -10z m2310 -17 c47 6 77 -3 67 -20 -3 -5
-20 -8 -38 -5 -17 3 -34 0 -38 -6 -3 -6 -18 -13 -33 -17 -21 -5 -29 -2 -38 14
-13 25 -32 28 -23 4 4 -11 3 -14 -5 -9 -33 20 7 63 42 44 10 -6 40 -8 66 -5z
m-4210 -39 c7 -19 39 -64 72 -100 34 -35 59 -66 57 -67 -2 -2 -16 -8 -31 -15
-23 -9 -28 -18 -28 -46 0 -38 -19 -63 -56 -72 -35 -9 -42 -31 -34 -103 10 -82
-1 -115 -48 -136 -81 -37 -118 -59 -150 -86 -18 -16 -41 -29 -52 -29 -19 0
-62 39 -127 115 -27 31 -37 36 -60 31 -16 -3 -65 -9 -110 -12 l-82 -7 -17 37
c-17 35 -17 38 4 81 45 92 19 161 -93 248 l-55 42 183 6 c100 3 205 11 232 18
61 14 228 71 310 105 33 14 63 25 67 26 3 0 12 -16 18 -36z m1816 3 c4 -7 4
-9 0 -5 -5 4 -17 -2 -29 -12 -11 -11 -25 -16 -31 -12 -7 4 -4 8 7 10 10 2 16
9 14 16 -6 16 31 18 39 3z m1249 -5 c-3 -3 -11 0 -18 7 -9 10 -8 11 6 5 10 -3
15 -9 12 -12z m75 -12 c0 -16 -5 -30 -10 -30 -18 0 -23 28 -8 44 18 21 18 20
18 -14z m-1290 17 c0 -2 -12 -14 -27 -28 l-28 -24 24 28 c23 25 31 32 31 24z
m5566 -60 c29 -45 77 -166 80 -202 1 -16 5 -40 9 -52 6 -18 0 -25 -32 -42 -22
-11 -45 -27 -52 -35 -18 -21 -31 -20 -31 3 0 10 -18 76 -41 145 -22 70 -39
137 -37 149 3 18 59 67 77 67 3 0 15 -15 27 -33z m-3385 -10 c-10 -9 -11 -8
-5 6 3 10 9 15 12 12 3 -3 0 -11 -7 -18z m146 17 c-3 -3 -12 -4 -19 -1 -8 3
-5 6 6 6 11 1 17 -2 13 -5z m-3640 -26 c-3 -8 -6 -5 -6 6 -1 11 2 17 5 13 3
-3 4 -12 1 -19z m1223 18 c0 -3 -4 -8 -10 -11 -5 -3 -10 -1 -10 4 0 6 5 11 10
11 6 0 10 -2 10 -4z m20 -9 c0 -2 -10 -12 -22 -23 l-23 -19 19 23 c18 21 26
27 26 19z m3661 -50 c-13 -13 -15 1 -4 30 7 17 8 17 11 -1 2 -10 -1 -23 -7
-29z m-3741 18 c-7 -9 -15 -13 -17 -11 -7 7 7 26 19 26 6 0 6 -6 -2 -15z
m-1170 -10 c0 -8 -2 -15 -4 -15 -2 0 -6 7 -10 15 -3 8 -1 15 4 15 6 0 10 -7
10 -15z m3931 -23 c78 -37 150 -107 186 -179 22 -46 26 -67 27 -160 1 -83 -3
-119 -17 -156 -10 -26 -23 -45 -28 -41 -5 3 -12 -1 -15 -9 -9 -25 -132 -97
-191 -112 -105 -28 -193 -14 -193 30 0 6 35 32 78 58 96 57 182 124 182 142 0
10 -10 12 -37 9 -55 -8 -163 -43 -200 -66 -18 -11 -33 -16 -33 -13 0 4 -12 -1
-27 -10 -26 -17 -27 -17 -45 5 -24 30 -23 72 3 88 12 8 18 19 15 28 -3 8 -2
13 3 9 5 -3 18 6 28 19 18 23 170 105 243 131 l35 13 -37 16 c-48 21 -83 20
-156 -3 -56 -17 -195 -96 -228 -128 -13 -13 -18 -10 -15 10 1 5 -3 6 -8 3 -5
-4 -18 5 -30 19 -31 41 -24 118 17 178 19 27 38 45 44 41 6 -4 8 -3 5 3 -10
16 60 60 139 88 92 33 166 29 255 -13z m-3961 -31 c-6 -23 -8 -47 -4 -54 4 -6
3 -9 -1 -4 -5 4 -14 -7 -19 -25 -6 -18 -17 -33 -24 -33 -7 0 -17 -7 -22 -15
-6 -9 -10 -10 -10 -3 0 6 4 14 9 17 5 3 12 18 16 33 8 34 57 134 62 129 3 -2
-1 -23 -7 -45z m2695 19 c26 0 33 -14 14 -25 -5 -4 -18 0 -28 9 -12 11 -21 13
-29 6 -8 -7 -9 -7 -3 1 5 6 7 19 4 28 -4 13 -2 13 7 -1 6 -10 22 -18 35 -18z
m-1520 10 c3 -5 1 -10 -4 -10 -6 0 -11 5 -11 10 0 6 2 10 4 10 3 0 8 -4 11
-10z m1654 -52 c0 -33 -2 -38 -9 -23 -12 28 -12 65 0 65 6 0 10 -19 9 -42z
m-2749 5 c0 -20 -3 -24 -11 -16 -7 7 -9 19 -6 27 10 24 17 19 17 -11z m5097
-63 c-4 -68 -12 -94 -50 -173 -25 -50 -58 -103 -73 -117 -27 -25 -26 -19 5 29
8 13 16 29 17 35 1 6 11 27 22 46 37 61 52 103 47 124 -5 15 -4 17 3 8 10 -15
22 36 22 96 0 17 3 32 6 32 4 0 4 -36 1 -80z m303 -74 c0 -5 -8 -2 -17 7 -10
9 -33 29 -51 43 -18 15 -42 45 -53 68 -19 39 -16 37 51 -33 38 -41 70 -79 70
-85z m-233 87 c-3 -10 -5 -2 -5 17 0 19 2 27 5 18 2 -10 2 -26 0 -35z m-2510
-65 c-3 -8 -6 -5 -6 6 -1 11 2 17 5 13 3 -3 4 -12 1 -19z m-1647 -1 c0 -2 -10
-12 -22 -23 l-23 -19 19 23 c18 21 26 27 26 19z m-66 -15 c-6 -4 -16 -16 -21
-27 -10 -18 -11 -17 -10 6 2 17 8 26 22 27 11 0 15 -2 9 -6z m-1 -37 c-3 -9
-8 -14 -10 -11 -3 3 -2 9 2 15 9 16 15 13 8 -4z m-1092 -20 c5 4 9 2 9 -4 0
-5 -9 -9 -20 -8 -11 1 -20 2 -20 3 0 1 3 11 7 21 7 17 8 17 11 0 2 -9 8 -15
13 -12z m3091 -17 c-7 -7 -12 -8 -12 -2 0 14 12 26 19 19 2 -3 -1 -11 -7 -17z
m4035 10 c9 -14 28 -80 43 -148 5 -25 12 -55 16 -67 6 -20 3 -23 -24 -23 -17
0 -59 -9 -94 -20 -34 -11 -66 -20 -69 -20 -4 0 -7 24 -7 53 -1 28 -4 75 -7
102 -7 59 7 81 70 114 46 24 61 26 72 9z m-6090 -63 c0 -49 -1 -53 -13 -38
-13 17 -14 17 -7 -2 6 -17 4 -18 -9 -7 -14 11 -14 17 0 57 8 25 18 45 21 45 4
0 8 -25 8 -55z m1740 18 c-3 -10 -5 -4 -5 12 0 17 2 24 5 18 2 -7 2 -21 0 -30z
m336 22 c-3 -9 -8 -14 -10 -11 -3 3 -2 9 2 15 9 16 15 13 8 -4z m137 1 c-7 -7
-13 -7 -20 0 -6 6 -3 10 10 10 13 0 16 -4 10 -10z m-3283 -33 c3 -7 -5 -17
-16 -23 -18 -9 -21 -8 -21 8 0 32 28 43 37 15z m2848 -41 c-8 -8 -25 10 -25
26 0 13 2 13 14 -4 8 -10 13 -21 11 -22z m2685 18 c1 21 36 -52 55 -115 19
-65 19 -104 0 -55 -13 33 -14 34 -21 12 -6 -21 -7 -21 -20 -5 -18 24 -18 38 1
23 13 -11 15 -7 14 26 -1 24 -3 30 -6 16 -5 -26 -23 -20 -23 9 0 11 -3 18 -7
16 -5 -3 -9 18 -10 46 -1 36 1 46 7 32 6 -14 9 -15 10 -5z m-5500 -26 c0 -9
-7 -14 -17 -12 -25 5 -28 28 -4 28 12 0 21 -6 21 -16z m987 -51 c-3 -10 -5 -2
-5 17 0 19 2 27 5 18 2 -10 2 -26 0 -35z m1834 29 c-11 -4 -11 -6 0 -13 10 -6
8 -9 -8 -9 -27 0 -31 27 -5 32 21 5 32 -3 13 -10z m-2871 -53 c0 -17 6 -32 15
-36 18 -6 49 -62 41 -71 -3 -3 -17 4 -29 16 -13 12 -27 19 -30 15 -4 -3 -7 5
-7 18 0 13 -3 42 -7 63 -4 28 -3 37 5 32 7 -4 12 -21 12 -37z m70 11 c0 -11 0
-23 1 -27 0 -4 -4 -9 -10 -11 -6 -2 -11 10 -11 27 0 17 5 31 10 31 6 0 10 -9
10 -20z m4991 -33 c-10 -9 -11 -8 -5 6 3 10 9 15 12 12 3 -3 0 -11 -7 -18z
m479 9 c0 -3 -4 -8 -10 -11 -5 -3 -10 -1 -10 4 0 6 5 11 10 11 6 0 10 -2 10
-4z m-5586 -28 c-8 -27 -12 -33 -19 -27 -7 8 7 49 17 49 5 0 6 -10 2 -22z
m4557 -8 c6 0 8 -4 5 -9 -8 -12 -46 -2 -46 11 0 6 7 7 16 4 9 -3 20 -6 25 -6z
m521 -17 c-27 -37 -82 -89 -82 -77 0 5 -5 2 -10 -6 -5 -8 -10 -10 -10 -4 0 6
7 17 15 24 8 7 15 9 15 4 0 -5 11 3 25 18 14 15 25 30 25 33 0 9 24 34 33 35
5 0 -1 -12 -11 -27z m507 -28 l0 -20 -9 20 c-5 11 -9 27 -9 35 -1 13 0 13 9 0
5 -8 9 -24 9 -35z m-4609 15 c0 -5 -4 -10 -10 -10 -5 0 -10 5 -10 10 0 6 5 10
10 10 6 0 10 -4 10 -10z m72 -19 c2 -17 1 -28 -4 -25 -8 5 -12 54 -4 54 2 0 6
-13 8 -29z m6229 -20 c-10 -6 -11 -13 -2 -29 6 -11 11 -61 11 -111 l0 -91
-116 3 -115 2 6 30 c4 17 12 60 18 97 7 37 15 70 19 73 4 4 24 13 45 20 42 16
157 20 134 6z m-6269 -49 c-8 -23 -22 2 -15 28 6 22 7 22 13 4 4 -10 5 -25 2
-32z m4598 9 c0 -21 -13 -4 -17 22 -2 17 -1 19 7 7 5 -8 10 -21 10 -29z
m-5560 -11 c0 -11 -7 -20 -15 -20 -8 0 -15 9 -15 20 0 11 7 20 15 20 8 0 15
-9 15 -20z m-93 -22 c-3 -8 -6 -5 -6 6 -1 11 2 17 5 13 3 -3 4 -12 1 -19z
m5665 -44 c-5 -9 -8 -1 -9 23 -1 33 0 35 8 15 5 -13 5 -30 1 -38z m-5680 -29
c-15 -44 -17 -47 -20 -22 -2 15 4 34 12 43 9 8 16 20 16 26 0 6 2 9 4 7 3 -2
-3 -27 -12 -54z m1028 45 c0 -5 -4 -10 -10 -10 -5 0 -10 5 -10 10 0 6 5 10 10
10 6 0 10 -4 10 -10z m-850 -20 c0 -5 -2 -10 -4 -10 -3 0 -8 5 -11 10 -3 6 -1
10 4 10 6 0 11 -4 11 -10z m3395 -55 c34 -13 64 -16 120 -13 85 6 88 4 135
-85 23 -44 24 -47 8 -80 -9 -19 -20 -51 -23 -71 -7 -33 -25 -61 -25 -37 0 16
-72 61 -97 61 -28 0 -53 -36 -53 -77 0 -18 -4 -33 -9 -33 -22 0 -62 70 -68
118 -5 45 -10 54 -43 76 -34 22 -70 77 -70 106 0 7 12 32 27 56 l28 43 12 -23
c7 -14 32 -32 58 -41z m2128 25 c3 -11 1 -18 -4 -14 -5 3 -9 12 -9 20 0 20 7
17 13 -6z m-4636 -22 c-3 -8 -6 -5 -6 6 -1 11 2 17 5 13 3 -3 4 -12 1 -19z
m4640 -30 c-3 -8 -6 -5 -6 6 -1 11 2 17 5 13 3 -3 4 -12 1 -19z m-5700 -10
c-3 -8 -6 -5 -6 6 -1 11 2 17 5 13 3 -3 4 -12 1 -19z m1033 10 c-1 -7 -7 -24
-15 -38 -13 -22 -14 -23 -15 -5 -1 11 -3 28 -5 38 -2 11 3 17 16 17 10 0 19
-6 19 -12z m-1060 -59 c0 -37 -4 -58 -10 -54 -6 4 -10 -17 -10 -54 0 -54 2
-61 20 -61 11 0 20 5 20 12 0 6 2 9 4 7 2 -2 -2 -44 -9 -94 l-12 -90 -3 75
c-2 41 -5 63 -7 47 -9 -55 -23 -14 -23 65 0 71 18 208 27 208 2 0 3 -27 3 -61z
m5748 -19 c0 -9 -3 -7 -8 5 -5 11 -8 29 -8 40 0 16 2 15 8 -5 4 -14 8 -32 8
-40z m-332 34 c-9 -8 -16 -17 -16 -19 0 -2 16 -19 35 -38 19 -19 35 -42 35
-51 0 -20 -16 -21 -24 -1 -3 8 -10 15 -15 15 -5 0 2 -23 16 -52 14 -28 27 -68
31 -87 l5 -36 -31 35 -32 34 0 -26 c0 -14 7 -28 15 -32 11 -4 15 -21 15 -67 0
-69 -10 -72 -21 -6 -5 33 -7 22 -8 -49 -1 -100 -19 -255 -31 -267 -4 -4 -10
24 -13 62 -8 91 -22 121 -27 54 -2 -26 -4 -63 -4 -80 -1 -38 -4 -40 -22 -15
-12 15 -13 14 -14 -10 0 -34 -24 -38 -35 -5 -7 20 -8 20 -12 -8 -2 -16 -6 -41
-9 -55 -6 -23 -7 -24 -14 -5 -8 18 -9 17 -9 -7 -1 -15 -5 -29 -10 -32 -5 -3
-12 -22 -15 -41 -4 -19 -12 -35 -17 -35 -6 0 -8 9 -5 20 3 11 9 29 12 40 3 11
1 20 -5 20 -6 0 -11 -8 -11 -18 0 -10 -13 -33 -30 -52 -16 -19 -29 -40 -30
-46 0 -7 -7 -15 -16 -18 -9 -4 -14 -13 -10 -22 3 -8 2 -13 -3 -10 -4 3 -17 -1
-27 -9 -10 -8 -25 -15 -31 -15 -19 0 -16 18 4 22 15 3 15 4 -1 21 -20 19 -36
22 -36 6 0 -13 -30 -44 -31 -32 -1 4 -1 11 -1 14 3 18 -37 -6 -49 -29 -17 -33
-31 -44 -40 -31 -10 17 -39 -2 -39 -28 0 -43 -17 -15 -24 39 -10 70 -26 45
-26 -39 0 -81 -16 -76 -60 17 -40 86 -55 90 -47 14 l6 -56 -22 19 c-12 10 -29
26 -38 35 -14 16 -73 44 -75 36 -3 -11 -34 28 -34 44 0 12 -4 16 -11 12 -7 -4
-9 -24 -6 -50 5 -52 -6 -57 -23 -11 -25 67 -45 105 -51 96 -3 -5 -4 -39 -3
-75 2 -60 1 -64 -12 -45 -44 62 -72 140 -79 215 -5 49 -11 73 -16 65 -5 -8 -9
-26 -9 -41 0 -48 -17 -31 -22 22 -4 38 1 69 21 125 15 42 30 72 34 69 4 -4 7
2 7 14 0 11 6 25 13 29 16 11 60 73 54 79 -4 4 -25 -17 -99 -104 -30 -34 -67
-130 -79 -207 -7 -45 -7 -43 -4 21 6 113 34 176 112 256 79 79 145 116 263
148 89 24 254 69 280 77 13 4 13 4 0 -6 -28 -20 -1 -22 62 -5 89 25 252 98
325 146 41 26 70 38 83 35 11 -3 18 -1 15 3 -3 5 -1 11 5 15 5 3 10 0 10 -7 0
-8 5 -6 11 5 5 9 15 17 20 17 6 0 3 -7 -5 -16z m1886 -25 c20 -5 39 -13 41
-17 9 -14 -24 -114 -64 -195 l-41 -84 -63 42 c-53 36 -109 62 -174 81 -10 3
-4 15 21 42 20 20 50 60 67 89 24 38 39 53 59 56 34 4 105 -2 154 -14z m-3022
-11 c0 -39 -29 -120 -47 -134 -28 -21 -46 -17 -104 25 -30 21 -69 46 -86 55
-29 14 -33 15 -33 1 0 -22 -47 -19 -60 4 -13 25 -13 27 3 29 6 1 26 4 42 8 44
9 215 31 253 33 27 1 32 -3 32 -21z m35 -73 c-10 -37 -21 -55 -31 -55 -11 0
-14 5 -9 18 4 9 14 37 21 62 22 70 27 79 31 52 3 -12 -3 -47 -12 -77z m1185
63 c15 -21 17 -28 6 -19 -16 13 -41 51 -33 51 2 0 14 -15 27 -32z m-5453 -160
c-2 -35 -3 -7 -3 62 0 69 1 97 3 63 2 -35 2 -91 0 -125z m975 96 c-8 -15 -10
-15 -15 0 -4 10 -3 15 3 11 6 -4 11 10 12 32 1 37 1 37 5 6 2 -18 0 -40 -5
-49z m-1012 4 c0 -18 -2 -20 -9 -8 -6 8 -7 18 -5 22 9 14 14 9 14 -14z m1017
-70 c-3 -7 -5 -2 -5 12 0 14 2 19 5 13 2 -7 2 -19 0 -25z m3928 12 c-3 -5 -12
-10 -18 -10 -7 0 -6 4 3 10 19 12 23 12 15 0z m808 -34 c-3 -4 -9 -2 -14 5
-13 22 -11 31 5 17 8 -7 12 -17 9 -22z m-4706 -48 c-2 -13 -4 -3 -4 22 0 25 2
35 4 23 2 -13 2 -33 0 -45z m4730 40 c-3 -8 -6 -5 -6 6 -1 11 2 17 5 13 3 -3
4 -12 1 -19z m8 -20 c4 4 5 -3 2 -16 -3 -12 -2 -20 2 -17 5 2 14 -14 20 -37
25 -82 23 -90 -13 -63 -11 8 -28 15 -37 15 -17 0 -17 -3 -3 -35 8 -20 14 -67
14 -110 0 -63 -3 -78 -20 -92 -11 -10 -20 -24 -20 -32 0 -8 -2 -12 -5 -9 -9 8
-22 128 -14 128 4 0 2 13 -4 30 -10 26 -9 32 8 45 11 8 15 15 9 15 -7 0 -10
14 -7 38 7 59 8 66 18 82 5 8 8 28 6 43 -2 26 -1 27 17 18 11 -6 23 -7 27 -3z
m1254 -29 c25 -11 65 -36 90 -56 25 -20 48 -38 50 -40 16 -12 -217 -207 -270
-228 -10 -4 -25 10 -47 43 -18 27 -61 77 -96 110 l-64 60 61 26 c34 15 89 46
122 70 65 48 75 49 154 15z m-7072 -71 c-2 -13 -4 -3 -4 22 0 25 2 35 4 23 2
-13 2 -33 0 -45z m1087 -35 c-1 -16 -2 -36 -3 -45 0 -10 -5 -18 -11 -18 -5 0
-7 14 -4 33 11 61 21 78 18 30z m-1009 -63 c-5 -56 -4 -80 4 -80 7 0 11 -28
11 -80 0 -44 -4 -80 -9 -80 -5 0 -11 -23 -13 -50 -8 -81 -24 -82 -40 -3 -6 26
-13 65 -18 86 -8 41 6 107 23 107 5 0 6 -15 3 -35 -9 -46 0 -45 13 2 8 28 7
39 -2 45 -9 6 -9 8 1 8 8 0 12 23 12 80 0 52 4 80 11 80 8 0 9 -24 4 -80z
m981 34 c-4 -20 -10 -34 -13 -30 -3 3 -2 21 1 42 4 20 10 34 13 30 3 -3 2 -21
-1 -42z m-1054 -55 c-2 -21 0 -39 7 -43 6 -4 11 -12 11 -17 0 -6 -5 -7 -11 -3
-9 5 -10 -1 -5 -20 3 -14 2 -26 -3 -26 -6 0 -10 22 -9 49 0 27 -3 63 -7 80 -3
17 -3 36 1 43 12 18 22 -21 16 -63z m2698 56 c19 -7 30 -14 23 -14 -6 -1 -20
-4 -30 -7 -15 -5 -15 -4 -3 4 11 8 5 10 -25 9 -22 -1 -44 -6 -48 -12 -5 -6 -7
-4 -4 5 3 10 14 14 33 12 22 -2 26 0 14 8 -20 13 -2 11 40 -5z m3443 -30 l132
-16 36 -40 c56 -59 109 -181 109 -248 l0 -24 -126 7 c-69 3 -159 9 -199 13
l-72 6 -7 67 c-5 57 -38 192 -61 252 -6 15 -3 16 25 8 17 -5 91 -16 163 -25z
m613 -27 c49 -46 114 -140 114 -165 0 -39 -346 -141 -358 -105 -2 6 -10 12
-18 12 -9 0 -12 -5 -8 -12 4 -7 4 -10 0 -6 -4 3 -20 42 -35 86 -28 79 -53 124
-98 173 l-24 26 88 7 c48 4 115 13 148 20 114 25 130 22 191 -36z m-5653 -33
c-3 -25 -2 -27 6 -10 8 16 10 17 10 3 1 -9 4 -24 8 -34 5 -12 3 -15 -6 -9 -10
5 -12 2 -7 -11 3 -11 1 -26 -5 -34 -8 -12 -9 -10 -4 8 5 16 2 22 -9 22 -13 0
-16 12 -16 54 0 30 3 63 7 73 6 16 8 15 14 -7 3 -14 5 -38 2 -55z m1806 40 c2
-3 -11 -4 -30 -4 -65 2 -99 10 -99 23 0 11 11 11 62 -1 35 -8 65 -16 67 -18z
m-2879 -10 c0 -14 -2 -25 -4 -25 -2 0 -6 11 -8 25 -3 14 -1 25 3 25 5 0 9 -11
9 -25z m3060 -36 c-14 -3 -31 -1 -38 4 -7 6 -43 11 -79 11 -37 1 -59 2 -50 4
9 2 17 7 17 11 0 4 39 0 87 -8 64 -11 81 -17 63 -22z m-310 11 c0 -5 -11 -10
-25 -10 -14 0 -25 5 -25 10 0 6 11 10 25 10 14 0 25 -4 25 -10z m90 -20 c11
-7 12 -12 3 -21 -15 -15 -43 -5 -43 16 0 17 18 19 40 5z m97 -6 c-3 -3 -12 -4
-19 -1 -8 3 -5 6 6 6 11 1 17 -2 13 -5z m263 -10 c14 -4 30 -8 35 -9 6 0 57
-9 114 -20 71 -13 98 -21 85 -26 -13 -5 -6 -7 21 -6 42 1 133 -10 147 -19 4
-3 8 -11 7 -17 0 -9 -2 -9 -5 -1 -4 9 -14 9 -40 1 -28 -9 -37 -8 -44 3 -9 14
-42 19 -159 21 -48 2 -51 3 -31 14 19 10 20 13 6 18 -9 4 -16 2 -16 -3 0 -6
-12 -10 -27 -9 l-28 1 25 8 c23 6 22 8 -15 14 -22 4 -51 10 -65 13 -14 3 -50
6 -81 7 -31 1 -61 6 -67 12 -12 13 99 12 138 -2z m-2190 -4 c0 -5 -4 -10 -9
-10 -6 0 -13 5 -16 10 -3 6 1 10 9 10 9 0 16 -4 16 -10z m1460 -25 c-7 -9 -15
-13 -18 -10 -3 2 1 11 8 20 7 9 15 13 18 10 3 -2 -1 -11 -8 -20z m3208 -63
c-11 -40 -23 -70 -26 -68 -2 3 6 37 17 77 12 39 24 69 27 67 2 -3 -6 -37 -18
-76z m-2458 48 c-8 -5 -22 -10 -30 -10 -13 0 -13 1 0 10 8 5 22 10 30 10 13 0
13 -1 0 -10z m2675 0 c3 -5 1 -10 -4 -10 -6 0 -11 5 -11 10 0 6 2 10 4 10 3 0
8 -4 11 -10z m-3469 -28 c-18 -16 -18 -16 -6 6 6 13 14 21 18 18 3 -4 -2 -14
-12 -24z m708 12 c22 -8 20 -34 -3 -34 -48 0 -141 14 -141 21 0 7 21 10 107
17 12 1 28 -1 37 -4z m163 -10 c-3 -3 -12 -4 -19 -1 -8 3 -5 6 6 6 11 1 17 -2
13 -5z m2617 -34 c4 -25 3 -31 -4 -20 -5 8 -10 26 -10 39 0 32 6 24 14 -19z
m-4759 -50 c-3 -9 -1 -30 4 -48 6 -20 6 -30 0 -27 -5 4 -9 14 -9 25 0 10 -7
20 -15 24 -21 8 -19 26 3 26 10 0 13 3 6 8 -6 4 -14 23 -17 42 l-6 35 19 -35
c10 -19 17 -42 15 -50z m1245 61 c0 -5 -7 -12 -16 -15 -14 -5 -15 -4 -4 9 14
17 20 19 20 6z m1050 -11 c0 -5 -13 -10 -30 -10 -16 0 -30 5 -30 10 0 6 14 10
30 10 17 0 30 -4 30 -10z m-2375 -20 c-3 -5 -1 -10 4 -10 6 0 11 -4 11 -10 0
-5 -9 -10 -20 -10 -23 0 -26 10 -8 28 15 15 21 16 13 2z m-65 -20 c0 -4 -6
-10 -14 -13 -10 -4 -12 0 -9 14 5 18 23 18 23 -1z m1390 16 c0 -2 -7 -7 -16
-10 -8 -3 -12 -2 -9 4 6 10 25 14 25 6z m60 -16 c0 -5 -7 -10 -15 -10 -8 0
-15 -9 -15 -20 0 -11 -4 -20 -10 -20 -5 0 -10 9 -10 19 0 11 -3 21 -7 24 -5 2
-3 3 2 2 6 -1 19 1 30 6 11 4 21 8 23 8 1 1 2 -3 2 -9z m969 -3 c-8 -7 -19
-21 -24 -32 -8 -19 -9 -19 -13 4 -4 24 11 41 38 41 13 -1 13 -2 -1 -13z m2301
-14 c0 -21 -3 -24 -9 -14 -5 8 -7 20 -4 28 8 21 13 15 13 -14z m-2517 0 c-13
-2 -33 -2 -45 0 -13 2 -3 4 22 4 25 0 35 -2 23 -4z m337 -2 c0 -5 -9 -11 -20
-14 -20 -5 -26 3 -13 16 9 10 33 8 33 -2z m-2310 -82 c0 -5 -7 -9 -16 -9 -9 0
-14 6 -11 13 3 7 -1 21 -9 32 -13 18 -14 18 -14 0 0 -27 -13 -9 -15 20 -1 25
0 25 32 -10 18 -20 33 -40 33 -46z m1075 71 c-3 -5 -11 -10 -16 -10 -6 0 -7 5
-4 10 3 6 11 10 16 10 6 0 7 -4 4 -10z m115 -45 c0 -8 -4 -15 -10 -15 -5 0 -7
7 -4 15 4 8 8 15 10 15 2 0 4 -7 4 -15z m1040 -5 c0 -11 -7 -20 -15 -20 -15 0
-21 21 -8 33 12 13 23 7 23 -13z m57 -12 c-3 -7 -5 -2 -5 12 0 14 2 19 5 13 2
-7 2 -19 0 -25z m-1247 18 c0 -2 -7 -7 -16 -10 -8 -3 -12 -2 -9 4 6 10 25 14
25 6z m-51 -32 c-6 -8 -19 -14 -28 -14 -9 0 -22 -5 -29 -12 -8 -8 -12 -8 -12
-1 0 6 14 16 30 23 17 7 30 17 30 22 0 5 5 6 10 3 8 -5 7 -11 -1 -21z m-2139
-4 c6 -11 7 -20 2 -20 -6 0 -12 9 -15 20 -3 11 -3 20 -1 20 2 0 8 -9 14 -20z
m1057 -2 c-3 -8 -6 -5 -6 6 -1 11 2 17 5 13 3 -3 4 -12 1 -19z m4088 -18 c-4
-17 -9 -29 -12 -26 -3 2 -2 19 2 36 4 17 9 29 12 26 3 -2 2 -19 -2 -36z
m-3906 -32 c30 -21 61 -38 70 -38 13 -1 12 -3 -3 -15 -27 -20 -53 -20 -36 -1
10 13 7 15 -17 13 -22 -2 -29 3 -31 20 -2 13 -8 20 -17 17 -7 -3 -16 -1 -20 5
-3 6 -11 11 -16 11 -6 0 -7 -5 -3 -12 4 -6 3 -8 -3 -5 -8 5 -10 33 -4 55 1 4
15 -4 80 -50z m911 27 c-14 -17 -40 -20 -40 -5 0 6 9 10 20 10 11 0 20 5 20
12 0 6 3 8 6 5 4 -4 1 -13 -6 -22z m-90 -9 c0 -5 -74 -41 -125 -60 l-40 -16
35 4 c19 2 27 1 17 -1 -14 -4 -16 -8 -7 -19 9 -10 4 -9 -20 3 -24 12 -37 13
-50 5 -10 -6 -22 -7 -31 -1 -12 7 -12 9 1 9 8 0 58 18 110 40 95 39 110 44
110 36z m-2056 -14 c2 -4 -2 -18 -10 -32 -9 -18 -13 -20 -14 -8 0 9 -3 18 -7
21 -5 2 -3 2 4 1 7 -2 10 3 6 12 -5 14 12 20 21 6z m2091 -2 c3 -6 -1 -7 -9
-4 -18 7 -21 14 -7 14 6 0 13 -4 16 -10z m195 0 c0 -5 -7 -10 -15 -10 -8 0
-15 5 -15 10 0 6 7 10 15 10 8 0 15 -4 15 -10z m3341 1 c15 23 11 -8 -5 -44
-8 -18 -17 -39 -20 -47 -3 -8 -3 1 0 20 4 19 7 46 7 60 0 14 2 19 4 11 5 -11
7 -11 14 0z m-5581 -36 c0 -14 -4 -25 -9 -25 -4 0 -6 11 -3 25 2 14 6 25 8 25
2 0 4 -11 4 -25z m2150 21 c0 -3 -4 -8 -10 -11 -5 -3 -10 -1 -10 4 0 6 5 11
10 11 6 0 10 -2 10 -4z m-2220 -65 c0 -9 -7 -3 -15 13 -19 36 -19 47 0 22 8
-11 15 -27 15 -35z m2030 39 c-8 -5 -19 -10 -25 -10 -5 0 -3 5 5 10 8 5 20 10
25 10 6 0 3 -5 -5 -10z m1214 1 c3 -4 -1 -17 -9 -27 -14 -18 -14 -18 -15 9 0
26 13 36 24 18z m-47 -23 c-3 -8 -6 -5 -6 6 -1 11 2 17 5 13 3 -3 4 -12 1 -19z
m-1167 -8 c-8 -6 -24 -10 -35 -9 -15 0 -13 3 10 13 32 14 49 11 25 -4z m-657
3 c-7 -2 -19 -2 -25 0 -7 3 -2 5 12 5 14 0 19 -2 13 -5z m44 -10 c-7 -11 86
-18 226 -18 64 0 117 -3 117 -6 0 -16 -50 -37 -100 -43 -37 -4 -48 -3 -35 3
11 5 37 10 58 10 20 1 37 5 37 9 0 5 -22 8 -49 8 -27 -1 -44 -4 -38 -8 7 -5 3
-8 -10 -8 -12 0 -25 -5 -29 -11 -4 -7 -27 -10 -61 -7 -42 4 -56 1 -63 -11 -5
-9 -10 -11 -10 -5 0 7 -7 11 -16 10 -9 0 -18 5 -20 12 -1 7 0 9 2 4 8 -15 54
-1 54 16 0 12 3 13 12 4 14 -14 63 -15 93 -2 15 7 11 8 -20 8 -66 0 -185 5
-185 9 0 2 6 10 13 18 12 15 32 21 24 8z m390 -9 c-3 -3 -12 -4 -19 -1 -8 3
-5 6 6 6 11 1 17 -2 13 -5z m-547 -14 c0 -5 -4 -10 -10 -10 -5 0 -10 5 -10 10
0 6 5 10 10 10 6 0 10 -4 10 -10z m-1240 -25 c4 3 10 -2 14 -10 3 -8 0 -14 -7
-12 -14 2 -27 18 -26 32 0 6 3 4 6 -3 2 -6 8 -10 13 -7z m5502 -38 c-6 -24
-23 -64 -38 -90 -42 -76 -122 -149 -101 -92 4 8 11 14 18 13 6 -2 16 6 22 17
7 11 14 22 17 25 15 14 59 100 70 138 17 55 26 46 12 -11z m-3482 33 c0 -5
-18 -10 -40 -10 -22 0 -40 5 -40 10 0 6 18 10 40 10 22 0 40 -4 40 -10z m-220
-4 c0 -3 -4 -8 -10 -11 -5 -3 -10 -1 -10 4 0 6 5 11 10 11 6 0 10 -2 10 -4z
m-465 -27 c5 -5 -5 -9 -28 -9 -27 0 -37 4 -37 16 0 13 6 15 28 9 15 -3 31 -11
37 -16z m42 -1 c-3 -8 -6 -5 -6 6 -1 11 2 17 5 13 3 -3 4 -12 1 -19z m103 -44
c0 -24 -4 -44 -10 -44 -5 0 -10 23 -10 51 0 31 4 48 10 44 6 -3 10 -26 10 -51z
m-1440 -9 c0 -11 -14 7 -31 40 -7 13 -3 12 10 -5 11 -14 21 -29 21 -35z m30
17 c0 -15 -2 -15 -10 -2 -13 20 -13 33 0 25 6 -3 10 -14 10 -23z m17 6 c-3 -8
-6 -5 -6 6 -1 11 2 17 5 13 3 -3 4 -12 1 -19z m3193 12 c0 -5 -2 -10 -4 -10
-3 0 -8 5 -11 10 -3 6 -1 10 4 10 6 0 11 -4 11 -10z m-33 -45 c4 -4 2 -5 -4
-1 -7 4 -13 3 -13 -2 0 -6 -9 -8 -20 -5 -11 3 -20 9 -20 15 0 11 46 6 57 -7z
m-182 -15 c3 -5 1 -10 -4 -10 -6 0 -11 5 -11 10 0 6 2 10 4 10 3 0 8 -4 11
-10z m-31 -18 c3 -5 -1 -9 -9 -9 -8 0 -12 4 -9 9 3 4 7 8 9 8 2 0 6 -4 9 -8z
m118 -6 c-3 -5 2 -7 11 -3 10 3 17 2 17 -4 0 -6 5 -7 11 -3 8 4 8 0 0 -15 -7
-11 -17 -21 -23 -21 -7 0 -7 4 0 13 8 10 6 13 -9 13 -12 0 -18 -5 -15 -13 4
-10 1 -10 -14 0 -18 11 -19 12 -2 18 15 6 14 8 -8 17 -24 10 -24 10 7 9 17 -1
29 -6 25 -11z m-3082 -16 c6 -11 8 -20 6 -20 -3 0 -10 9 -16 20 -6 11 -8 20
-6 20 3 0 10 -9 16 -20z m3040 -20 c18 -12 2 -12 -25 0 -13 6 -15 9 -5 9 8 0
22 -4 30 -9z m-133 -22 c-3 -8 -6 -5 -6 6 -1 11 2 17 5 13 3 -3 4 -12 1 -19z
m-2706 -28 c10 0 19 -5 19 -11 0 -6 -9 -9 -20 -6 -11 3 -20 1 -20 -3 0 -5 8
-11 18 -13 13 -4 11 -5 -5 -6 -20 -1 -23 4 -22 32 0 17 3 26 6 20 2 -7 13 -13
24 -13z m16 14 c-3 -3 -12 -4 -19 -1 -8 3 -5 6 6 6 11 1 17 -2 13 -5z m2824
-14 c61 -20 110 -54 131 -93 7 -14 2 -30 -24 -69 l-32 -52 -8 37 c-13 61 -43
110 -92 146 -25 19 -46 38 -46 43 0 11 -2 11 71 -12z m-2923 -15 c-3 -3 -9 2
-12 12 -6 14 -5 15 5 6 7 -7 10 -15 7 -18z m-60 -10 c-3 -3 -9 2 -12 12 -6 14
-5 15 5 6 7 -7 10 -15 7 -18z m192 1 c0 -3 -4 -8 -10 -11 -5 -3 -10 -1 -10 4
0 6 5 11 10 11 6 0 10 -2 10 -4z m4935 -6 c-3 -5 -12 -10 -18 -10 -7 0 -6 4 3
10 19 12 23 12 15 0z m-5093 -42 c-8 -8 -9 -4 -5 13 4 13 8 18 11 10 2 -7 -1
-18 -6 -23z m5052 5 c-51 -46 -66 -54 -35 -20 19 20 39 37 45 37 5 0 1 -8 -10
-17z m-4938 -20 c-15 -4 -16 -7 -5 -15 11 -8 10 -9 -3 -4 -11 3 -18 0 -19 -7
0 -7 -2 -20 -4 -30 -3 -15 -1 -16 11 -6 8 7 14 7 14 1 0 -12 -28 -24 -40 -17
-21 13 17 85 44 84 19 -1 19 -2 2 -6z m28 -68 c-4 -8 -10 -12 -15 -9 -11 6 -2
24 11 24 5 0 7 -7 4 -15z m3958 -21 c61 -11 85 -20 82 -29 -4 -8 14 -16 57
-24 34 -7 74 -17 88 -23 l26 -10 -35 -16 -35 -16 45 -5 c44 -6 122 -50 90 -51
-8 -1 3 -7 25 -15 27 -10 43 -11 52 -4 15 13 33 3 33 -17 0 -8 10 -14 25 -14
14 0 25 -5 25 -10 0 -6 14 -3 33 6 l32 17 -19 -21 c-10 -12 -34 -24 -52 -28
-19 -3 -37 -10 -40 -15 -3 -5 -12 -9 -21 -9 -24 0 -114 -48 -160 -86 -70 -58
-198 -114 -258 -113 -49 0 -98 32 -100 64 -1 35 76 107 161 150 55 28 57 30
30 33 -41 5 -108 -16 -162 -50 -25 -15 -42 -23 -38 -16 8 12 -26 -10 -112 -74
-69 -51 -122 -51 -184 2 -14 12 -19 19 -12 15 7 -4 12 1 13 12 2 55 9 70 47
103 22 20 71 51 107 69 43 21 63 37 57 43 -22 22 -196 -52 -259 -110 -49 -46
-85 -68 -120 -75 -30 -6 -32 -4 -49 38 -9 25 -20 42 -25 39 -5 -3 -9 0 -9 5 0
23 73 90 132 121 35 19 68 39 73 46 15 20 112 55 190 69 96 18 165 18 267 -1z
m2253 -30 c28 -18 72 -51 99 -74 53 -44 54 -44 -44 -42 -41 1 -42 0 -15 -7 23
-7 11 -9 -49 -10 -97 -1 -273 -32 -236 -41 19 -4 7 -10 -53 -23 -101 -22 -101
-22 -112 15 -6 17 -17 34 -25 36 -12 4 -13 2 -2 -9 16 -17 15 -54 -2 -68 -8
-7 -54 -32 -102 -57 l-89 -45 -67 16 c-65 17 -67 16 -89 -4 -27 -25 -95 -29
-125 -6 -21 16 -38 20 -30 6 3 -5 -7 -14 -22 -20 -48 -19 -96 -16 -138 8 l-39
23 29 -25 29 -25 -24 -7 c-114 -33 -248 -98 -276 -133 -11 -13 -16 -13 -45 1
-18 8 -73 21 -121 28 -48 7 -95 19 -105 26 -15 12 -14 13 6 3 13 -7 35 -9 48
-6 13 4 63 9 110 11 117 7 311 76 321 115 5 19 71 67 86 62 4 -1 7 5 7 13 0
15 29 25 65 23 11 0 29 0 40 1 16 1 17 3 6 10 -9 6 -22 6 -32 1 -31 -17 -28 3
5 36 32 32 59 41 124 43 29 1 28 15 -3 29 -35 16 -44 14 -21 -3 19 -14 18 -15
-15 -14 -19 0 -28 3 -21 6 6 2 10 8 8 12 -3 4 10 17 29 29 35 25 118 31 232
16 40 -5 54 -4 49 5 -4 6 -22 11 -39 12 -18 0 -49 3 -71 7 l-38 7 42 23 c52
27 104 28 195 2 76 -22 122 -25 145 -10 11 7 3 10 -30 10 -25 0 -63 6 -85 13
-36 11 -18 13 165 17 113 3 221 3 240 1 19 -2 58 -19 85 -37z m-7792 -119 c31
-75 32 -77 73 -145 15 -24 27 -51 27 -60 0 -8 8 -21 19 -28 32 -23 20 -27 -61
-24 l-78 4 -51 -51 c-28 -28 -59 -51 -69 -51 -15 0 -16 -2 -3 -10 10 -6 20 -4
31 6 13 12 22 13 38 5 11 -6 32 -12 48 -12 20 -1 22 -3 8 -6 -11 -2 -30 -6
-42 -8 -12 -3 -35 -16 -51 -30 l-30 -25 -56 32 c-53 31 -69 52 -45 60 6 2 13
32 16 66 3 34 10 62 14 62 5 0 9 5 9 10 0 6 -9 10 -19 10 -10 0 -29 9 -42 21
-22 19 -23 20 -3 14 13 -3 27 2 39 15 16 18 16 20 1 26 -9 3 -25 4 -37 1 -35
-9 -18 25 25 49 22 12 43 29 48 38 7 13 3 16 -26 16 -39 0 -126 34 -126 49 0
12 38 19 136 24 54 3 82 10 115 30 l44 27 9 -23 c5 -12 22 -53 39 -92z m1701
29 c3 -8 2 -12 -4 -9 -6 3 -10 10 -10 16 0 14 7 11 14 -7z m-2089 -13 c-3 -6
-23 -20 -43 -30 l-37 -19 65 5 c47 3 70 1 84 -10 36 -27 9 -37 -95 -37 l-100
0 24 42 c18 33 32 45 63 54 42 12 50 11 39 -5z m4279 -6 c3 -8 1 -15 -4 -15
-6 0 -10 7 -10 15 0 8 2 15 4 15 2 0 6 -7 10 -15z m-29 -15 c-3 -5 -12 -10
-18 -10 -7 0 -6 4 3 10 19 12 23 12 15 0z m-2119 -47 c-7 -7 -26 7 -26 19 0 6
6 6 15 -2 9 -7 13 -15 11 -17z m6001 21 c-3 -3 -12 -4 -19 -1 -8 3 -5 6 6 6
11 1 17 -2 13 -5z m-60 -10 c-3 -3 -12 -4 -19 -1 -8 3 -5 6 6 6 11 1 17 -2 13
-5z m-5594 -11 c-7 -2 -19 -2 -25 0 -7 3 -2 5 12 5 14 0 19 -2 13 -5z m1710
-37 c6 -14 0 -26 -13 -26 -3 0 -6 9 -6 20 0 23 11 27 19 6z m37 4 c0 -5 -5
-10 -11 -10 -5 0 -7 5 -4 10 3 6 8 10 11 10 2 0 4 -4 4 -10z m-1983 -14 c0 -8
-6 -12 -15 -9 -11 5 -11 7 0 14 7 5 13 9 14 9 0 0 1 -6 1 -14z m673 -16 c0 -5
-2 -10 -4 -10 -3 0 -8 5 -11 10 -3 6 -1 10 4 10 6 0 11 -4 11 -10z m1305 0
c-3 -5 -11 -10 -16 -10 -6 0 -7 5 -4 10 3 6 11 10 16 10 6 0 7 -4 4 -10z
m-1755 -32 c0 -5 -8 -8 -17 -7 -10 0 -13 3 -6 5 7 3 9 13 6 22 -4 15 -3 15 6
2 6 -8 11 -18 11 -22z m28 12 c15 0 15 -2 2 -10 -15 -9 -30 4 -29 25 0 6 3 4
6 -2 2 -7 12 -13 21 -13z m-181 -17 c12 -5 14 -3 8 8 -7 12 -6 12 7 1 13 -10
17 -10 22 0 5 10 7 10 12 0 3 -6 10 -10 15 -6 5 3 9 1 9 -5 0 -19 -46 -23 -84
-7 -20 8 -36 18 -36 22 0 3 7 3 15 0 8 -3 22 -9 32 -13z m240 11 c-3 -3 -12
-4 -19 -1 -8 3 -5 6 6 6 11 1 17 -2 13 -5z m468 -4 c3 -5 1 -10 -4 -10 -6 0
-11 5 -11 10 0 6 2 10 4 10 3 0 8 -4 11 -10z m745 6 c0 -3 -4 -8 -10 -11 -5
-3 -10 -1 -10 4 0 6 5 11 10 11 6 0 10 -2 10 -4z m339 -13 c-12 -14 -41 -11
-47 5 -2 7 8 10 26 9 22 -1 28 -5 21 -14z m-62 1 c-3 -3 -12 -4 -19 -1 -8 3
-5 6 6 6 11 1 17 -2 13 -5z m-1209 -45 c-5 -3 -6 -13 -2 -22 4 -12 1 -17 -11
-17 -12 0 -15 5 -11 16 3 9 9 28 13 42 6 24 7 24 13 7 4 -11 3 -23 -2 -26z
m-234 16 c-4 -8 -16 -15 -28 -15 -20 0 -20 1 4 14 14 8 26 14 27 15 1 1 0 -6
-3 -14z m1426 11 c0 -3 -4 -8 -10 -11 -5 -3 -10 -1 -10 4 0 6 5 11 10 11 6 0
10 -2 10 -4z m-1010 -10 c0 -2 -8 -10 -17 -17 -16 -13 -17 -12 -4 4 13 16 21
21 21 13z m1045 -6 c-3 -5 -12 -10 -18 -10 -7 0 -6 4 3 10 19 12 23 12 15 0z
m3925 1 c114 -7 131 -11 195 -42 39 -19 77 -39 85 -44 14 -9 61 -23 255 -75
44 -11 86 -23 94 -26 9 -3 -14 -23 -61 -52 -42 -26 -111 -75 -153 -109 -57
-47 -84 -63 -108 -64 -25 0 -28 -2 -13 -8 17 -6 11 -14 -43 -59 -34 -29 -67
-52 -73 -52 -6 0 -47 16 -91 36 l-81 37 -80 -12 c-101 -16 -223 -54 -267 -84
l-34 -23 -105 17 c-58 9 -143 26 -190 38 -47 11 -197 39 -335 61 -137 22 -302
51 -365 64 -224 47 -643 94 -664 75 -6 -5 -24 -9 -40 -9 -28 1 -29 2 -12 12
11 6 96 35 190 64 198 63 241 66 425 33 64 -11 123 -23 131 -26 8 -3 -16 -14
-54 -24 -38 -11 -81 -29 -97 -39 -20 -15 -45 -20 -101 -21 l-73 -2 57 -9 c52
-9 62 -8 105 14 69 36 137 50 199 42 31 -3 59 -2 71 5 15 9 13 11 -17 12 l-35
1 30 13 c17 8 46 14 65 13 19 0 46 5 60 11 23 10 23 11 3 7 -35 -7 -27 10 15
29 20 10 41 20 46 23 5 3 6 -3 3 -12 -6 -15 -4 -17 10 -10 10 4 114 10 231 12
118 2 212 8 212 13 0 5 -72 9 -164 9 -159 0 -207 9 -154 29 35 13 264 36 348
35 41 -1 97 -5 123 -9 40 -6 63 -3 148 25 54 18 97 35 95 38 -3 2 -33 -6 -67
-17 -34 -12 -63 -21 -64 -19 -8 8 26 40 66 63 49 28 73 29 279 16z m-3971 -10
c11 -7 9 -10 -8 -16 -25 -8 -36 -2 -26 14 8 13 15 14 34 2z m-1439 -43 c0 -6
-6 -5 -15 2 -8 7 -15 14 -15 16 0 2 7 1 15 -2 8 -4 15 -11 15 -16z m1355 2
c-22 -11 -44 -19 -50 -19 -15 0 58 37 75 38 8 0 -3 -8 -25 -19z m4480 -10 c66
-10 183 -28 260 -39 77 -12 178 -28 225 -36 47 -8 101 -16 120 -17 32 -3 28
-6 -45 -31 -44 -16 -87 -31 -95 -34 -8 -2 -1 5 15 16 27 19 28 21 8 21 -39 0
-123 -21 -123 -31 0 -6 -10 1 -22 15 -19 22 -54 34 -203 71 -154 38 -379 107
-290 89 17 -3 84 -14 150 -24z m-5505 -28 c0 -15 -2 -15 -10 -2 -8 13 -10 13
-10 -1 0 -9 -7 -22 -15 -29 -13 -10 -15 -9 -15 8 0 24 27 55 41 47 5 -4 9 -14
9 -23z m957 12 c-3 -3 -12 -4 -19 -1 -8 3 -5 6 6 6 11 1 17 -2 13 -5z m-77
-24 c0 -5 -4 -10 -10 -10 -5 0 -10 5 -10 10 0 6 5 10 10 10 6 0 10 -4 10 -10z
m-1035 -20 c-3 -5 -10 -10 -16 -10 -5 0 -9 5 -9 10 0 6 7 10 16 10 8 0 12 -4
9 -10z m895 1 c0 -12 -39 -21 -45 -11 -3 5 5 11 17 13 13 2 24 5 26 6 1 0 2
-3 2 -8z m97 3 c-3 -3 -12 -4 -19 -1 -8 3 -5 6 6 6 11 1 17 -2 13 -5z m-227
-24 c0 -5 -7 -7 -15 -4 -8 4 -15 8 -15 10 0 2 7 4 15 4 8 0 15 -4 15 -10z
m167 4 c-3 -3 -12 -4 -19 -1 -8 3 -5 6 6 6 11 1 17 -2 13 -5z m2920 -44 c74
-10 137 -21 140 -24 11 -11 -5 -18 -51 -23 -53 -6 -323 48 -285 57 42 10 60 9
196 -10z m2107 -29 c7 -11 -55 -64 -184 -156 -52 -38 -117 -88 -143 -111 -27
-24 -76 -64 -110 -89 -56 -42 -64 -46 -101 -39 -61 10 -147 42 -188 69 -21 14
-38 21 -38 16 0 -17 60 -53 128 -77 64 -22 65 -23 22 -18 -25 3 -54 10 -66 16
-12 6 -89 8 -190 6 -133 -2 -176 -7 -201 -20 -23 -12 -33 -13 -33 -4 0 16 153
70 273 97 l99 21 71 -33 c88 -40 160 -54 152 -29 -3 10 7 28 27 47 55 52 278
214 363 264 80 47 109 57 119 40z m-8115 -38 c7 -5 -32 3 -51 12 -10 4 -18 11
-18 15 0 7 54 -14 69 -27z m8258 21 c-3 -3 -12 -4 -19 -1 -8 3 -5 6 6 6 11 1
17 -2 13 -5z m-8274 -68 c29 -21 43 -36 35 -39 -7 -3 6 -8 29 -12 24 -4 54
-18 68 -31 15 -13 38 -24 52 -24 24 0 260 -109 293 -135 8 -7 40 -20 70 -30
30 -9 60 -24 67 -32 6 -8 40 -25 75 -38 35 -12 111 -46 171 -75 88 -43 105
-55 96 -66 -7 -8 -10 -32 -7 -57 l5 -42 -56 2 c-31 1 -114 -5 -186 -13 -71 -9
-140 -13 -152 -11 -12 2 -20 1 -18 -3 7 -11 -67 -21 -106 -15 -24 4 -28 3 -14
-3 14 -7 -5 -13 -75 -26 -52 -9 -102 -19 -112 -20 -13 -3 -18 13 -28 96 -11
86 -17 105 -44 141 -43 56 -83 81 -169 107 -40 12 -76 24 -82 26 -5 2 42 2
105 -1 63 -3 129 -1 145 4 17 5 27 10 24 10 -33 5 -328 1 -374 -4 -58 -7 -59
-7 -44 11 9 11 31 47 48 81 17 34 38 66 47 71 9 5 14 11 12 14 -4 7 65 148 72
148 3 0 27 -15 53 -34z m5554 -97 c7 -7 57 -14 112 -17 56 -2 101 -8 101 -12
0 -4 -18 -12 -41 -19 -60 -18 -43 -22 26 -5 64 15 147 19 159 7 3 -4 -4 -13
-16 -20 -20 -10 -4 -12 103 -13 69 0 129 -3 133 -7 4 -4 13 -8 19 -9 7 0 20
-2 30 -2 10 -1 15 -6 12 -12 -3 -5 4 -11 17 -12 13 0 1 -4 -27 -8 -46 -6 -44
-7 30 -8 55 -1 75 1 65 8 -12 8 -11 10 6 10 11 0 24 -4 30 -9 16 -15 152 -33
309 -41 219 -11 375 -32 375 -51 0 -7 -36 -9 -107 -7 -142 4 -610 -11 -648
-22 -16 -4 -57 -13 -90 -20 -33 -6 -78 -20 -100 -31 -22 -11 -31 -17 -20 -13
105 35 165 46 315 54 319 18 514 22 560 11 38 -9 31 -10 -50 -6 -161 8 -615
-30 -785 -67 -49 -10 -54 -9 -122 26 -39 19 -124 51 -188 71 -64 19 -125 39
-135 45 -10 5 -44 40 -76 77 -93 109 -89 103 -73 103 8 0 46 -33 84 -74 81
-85 98 -95 226 -132 52 -15 114 -36 139 -46 64 -28 78 -29 127 -13 24 8 86 20
138 27 52 6 95 15 95 20 0 14 -211 8 -255 -7 -22 -8 -41 -18 -43 -23 -2 -8
-128 32 -278 90 -47 18 -84 49 -163 141 -23 26 -17 39 6 16z m-1808 -197 c20
-21 51 -66 69 -100 18 -34 35 -62 37 -62 2 0 20 9 39 21 40 23 56 22 176 -17
41 -13 98 -31 125 -40 28 -8 73 -19 102 -24 29 -4 67 -13 85 -18 18 -6 70 -14
116 -17 65 -6 85 -11 89 -24 34 -103 80 -150 218 -219 47 -24 74 -42 65 -45
-8 -3 -59 -10 -113 -16 -92 -11 -101 -10 -148 10 -45 20 -55 21 -92 9 -64 -19
-146 -72 -212 -139 -33 -34 -65 -61 -72 -61 -7 0 -89 39 -182 86 -185 94 -230
106 -318 85 -53 -13 -166 -55 -256 -95 -68 -31 -88 -32 -110 -8 -16 17 -14 19
21 31 20 8 64 26 97 40 33 15 71 32 85 39 55 24 -4 10 -97 -24 -54 -19 -109
-38 -122 -41 -29 -7 -93 25 -84 41 3 6 3 8 -2 4 -11 -11 -47 11 -39 24 4 6 3
8 -3 5 -5 -3 -20 7 -32 23 -21 29 -50 43 -35 18 5 -9 3 -9 -9 1 -9 7 -14 18
-10 24 3 6 1 7 -5 3 -7 -4 -47 24 -94 65 -46 40 -113 95 -150 123 -38 28 -68
55 -68 61 0 5 -15 19 -33 29 l-32 20 41 9 c36 8 48 5 105 -23 62 -31 63 -32
41 -7 -24 25 -24 25 -3 36 11 6 62 20 113 30 51 11 104 24 118 30 24 9 24 10
-10 10 -19 1 -51 -4 -70 -10 -19 -6 -53 -15 -75 -19 -22 -4 -51 -11 -65 -15
-54 -15 -80 -17 -80 -6 0 6 2 11 4 11 2 0 48 16 101 35 141 50 275 84 384 97
53 6 150 19 216 28 66 10 124 18 129 19 5 0 25 -16 45 -37z m3238 -58 c-3 -3
-12 -4 -19 -1 -8 3 -5 6 6 6 11 1 17 -2 13 -5z m-5696 -221 c37 -22 56 -63 64
-138 3 -33 8 -79 11 -101 6 -56 -17 -66 -47 -21 -12 18 -34 44 -47 60 -14 15
-27 37 -29 50 -7 45 -25 87 -54 123 -16 20 -29 38 -29 40 0 12 106 1 131 -13z
m544 -204 c51 -27 50 -26 35 -44 -19 -23 -65 -18 -96 10 -33 30 -44 32 -44 5
0 -11 -7 -20 -15 -20 -24 0 -18 45 8 58 34 17 69 14 112 -9z m95 -58 c0 -10
-46 -31 -54 -24 -7 7 37 42 46 36 5 -2 8 -8 8 -12z"/>
<path d="M5316 9183 c-4 -4 -24 -6 -44 -5 -20 1 -66 -4 -102 -12 -46 -10 -56
-15 -33 -15 17 -1 34 -5 38 -10 3 -5 22 -8 43 -5 l37 4 -35 -13 c-31 -12 -32
-14 -12 -19 14 -4 20 -2 15 4 -3 7 -1 8 6 4 6 -4 9 -12 5 -17 -3 -5 -9 -7 -14
-4 -4 3 -11 -6 -14 -20 -12 -46 -76 -101 -76 -65 0 5 7 7 15 4 10 -4 15 0 15
11 0 9 -4 13 -10 10 -5 -3 -10 1 -10 9 0 8 5 18 10 21 6 3 10 10 10 16 0 5 -4
9 -10 9 -5 0 -10 -7 -10 -15 0 -8 -4 -15 -10 -15 -13 0 -13 -56 0 -81 15 -27
24 -24 43 16 9 19 49 68 88 110 40 41 70 78 67 80 -3 3 -8 2 -12 -2z"/>
<path d="M5068 9143 c7 -3 16 -2 19 1 4 3 -2 6 -13 5 -11 0 -14 -3 -6 -6z"/>
<path d="M5123 9133 c9 -2 23 -2 30 0 6 3 -1 5 -18 5 -16 0 -22 -2 -12 -5z"/>
<path d="M4978 9123 c7 -3 16 -2 19 1 4 3 -2 6 -13 5 -11 0 -14 -3 -6 -6z"/>
<path d="M4890 9104 l-25 -15 34 5 c18 3 40 6 47 6 8 0 14 5 14 10 0 15 -42
11 -70 -6z"/>
<path d="M5090 9116 c0 -2 6 -9 14 -15 10 -9 15 -8 20 4 4 10 -1 15 -14 15
-11 0 -20 -2 -20 -4z"/>
<path d="M4845 9080 c27 -12 43 -12 25 0 -8 5 -22 9 -30 9 -10 0 -8 -3 5 -9z"/>
<path d="M4920 9080 c-11 -8 -9 -9 13 -8 15 1 27 6 27 10 0 11 -22 10 -40 -2z"/>
<path d="M4202 8620 c-7 -11 -8 -20 -3 -20 9 0 24 30 18 36 -1 2 -8 -6 -15
-16z"/>
<path d="M4151 8518 c-1 -10 -5 -18 -11 -18 -5 0 -7 -7 -3 -17 5 -14 8 -12 15
7 5 13 7 28 4 34 -2 6 -5 3 -5 -6z"/>
<path d="M4200 8440 c0 -30 -4 -40 -16 -40 -13 0 -15 -7 -9 -40 7 -39 2 -46
-27 -41 -5 0 -8 -6 -8 -15 0 -12 -4 -14 -12 -7 -7 5 -24 6 -38 2 -24 -7 -24
-7 5 -8 24 -1 27 -3 15 -12 -11 -8 -8 -9 15 -4 17 4 32 11 33 16 2 5 10 9 18
9 8 0 14 5 14 10 0 6 7 10 15 10 12 0 15 16 15 80 0 47 -4 80 -10 80 -5 0 -10
-18 -10 -40z"/>
<path d="M4136 8439 c6 -30 -13 -50 -26 -28 -6 9 -10 6 -15 -13 -4 -15 -4 -32
0 -37 3 -6 1 -20 -5 -31 -7 -13 -7 -20 0 -20 5 0 10 7 10 15 0 18 20 20 20 3
0 -7 5 -5 11 6 9 14 8 21 -2 28 -11 7 -11 11 -1 15 6 2 12 11 12 19 0 9 3 13
8 11 4 -3 8 9 9 26 0 18 -1 26 -4 18 -5 -11 -7 -11 -15 0 -6 9 -7 5 -2 -12z"/>
<path d="M4071 8344 c0 -11 3 -14 6 -6 3 7 2 16 -1 19 -3 4 -6 -2 -5 -13z"/>
<path d="M4110 8950 c0 -6 7 -10 15 -10 8 0 15 2 15 4 0 2 -7 6 -15 10 -8 3
-15 1 -15 -4z"/>
<path d="M4210 8906 c0 -2 8 -10 18 -17 15 -13 16 -12 3 4 -13 16 -21 21 -21
13z"/>
<path d="M4176 8892 c-2 -4 4 -8 14 -8 10 0 16 4 14 8 -3 4 -9 8 -14 8 -5 0
-11 -4 -14 -8z"/>
<path d="M3795 8880 c-3 -6 1 -7 9 -4 18 7 21 14 7 14 -6 0 -13 -4 -16 -10z"/>
<path d="M4978 8933 c12 -2 30 -2 40 0 9 3 -1 5 -23 4 -22 0 -30 -2 -17 -4z"/>
<path d="M5530 8840 c0 -5 5 -10 11 -10 5 0 7 5 4 10 -3 6 -8 10 -11 10 -2 0
-4 -4 -4 -10z"/>
<path d="M5560 8845 c0 -2 10 -10 23 -16 20 -11 21 -11 8 4 -13 16 -31 23 -31
12z"/>
<path d="M5610 8816 c0 -2 7 -9 15 -16 9 -7 15 -8 15 -2 0 5 -7 12 -15 16 -8
3 -15 4 -15 2z"/>
<path d="M5811 8484 c0 -11 3 -14 6 -6 3 7 2 16 -1 19 -3 4 -6 -2 -5 -13z"/>
<path d="M7533 8503 c9 -2 23 -2 30 0 6 3 -1 5 -18 5 -16 0 -22 -2 -12 -5z"/>
<path d="M8110 8265 c13 -14 26 -25 28 -25 3 0 -5 11 -18 25 -13 14 -26 25
-28 25 -3 0 5 -11 18 -25z"/>
<path d="M6934 8168 l-19 -23 23 19 c21 18 27 26 19 26 -2 0 -12 -10 -23 -22z"/>
<path d="M6890 8110 c-12 -16 -19 -30 -16 -30 2 0 14 14 26 30 12 17 19 30 16
30 -2 0 -14 -13 -26 -30z"/>
<path d="M7785 7839 c22 -4 54 -8 70 -7 l30 0 -30 8 c-16 4 -48 8 -70 8 l-40
0 40 -9z"/>
<path d="M7000 7810 c0 -5 5 -10 10 -10 6 0 10 5 10 10 0 6 -4 10 -10 10 -5 0
-10 -4 -10 -10z"/>
<path d="M7544 7750 c-20 -8 -42 -30 -30 -30 3 0 20 9 38 20 34 20 30 25 -8
10z"/>
<path d="M7400 7439 c0 -5 5 -7 10 -4 6 3 10 8 10 11 0 2 -4 4 -10 4 -5 0 -10
-5 -10 -11z"/>
<path d="M7366 7385 c-9 -26 -7 -32 5 -12 6 10 9 21 6 23 -2 3 -7 -2 -11 -11z"/>
<path d="M8351 6864 c0 -11 3 -14 6 -6 3 7 2 16 -1 19 -3 4 -6 -2 -5 -13z"/>
<path d="M7310 6797 c0 -4 14 -33 30 -64 38 -71 92 -118 145 -126 l40 -6 -35
12 c-19 6 -41 16 -48 22 -34 27 -66 65 -97 115 -19 30 -35 51 -35 47z"/>
<path d="M7775 6578 c-16 -5 -64 -13 -105 -17 -67 -6 -71 -7 -32 -12 40 -4
158 13 170 26 11 10 -4 12 -33 3z"/>
<path d="M4620 8481 c0 -7 -4 -10 -9 -7 -5 4 -7 -4 -4 -16 4 -19 3 -20 -7 -8
-9 12 -10 10 -5 -10 4 -14 12 -29 17 -35 7 -7 8 -2 3 14 l-7 23 31 -18 c20
-12 31 -26 31 -41 0 -27 11 -34 53 -35 17 -1 34 -4 37 -8 3 -4 15 -4 28 1 20
8 22 13 16 44 -4 23 -2 35 5 35 6 0 11 -5 11 -11 0 -13 26 -40 32 -33 3 2 13
-5 23 -16 20 -22 67 -27 83 -7 16 19 25 64 18 91 -5 19 -12 23 -38 22 -18 -1
-36 -5 -40 -11 -5 -6 -12 -4 -18 5 -5 8 -10 11 -10 6 0 -5 -7 -3 -15 4 -13 10
-15 9 -15 -9 0 -28 -20 -27 -21 2 0 12 -3 16 -6 10 -3 -10 -10 -10 -26 -1
l-22 11 20 -23 c11 -13 14 -20 5 -14 -16 9 -21 11 -46 13 -8 0 -13 5 -10 9 3
5 -1 9 -9 9 -8 0 -12 -4 -9 -9 3 -4 -4 -8 -16 -8 -13 0 -19 4 -14 12 4 6 3 8
-4 4 -6 -3 -13 -2 -17 4 -3 5 -12 10 -18 10 -7 0 -4 -7 6 -14 9 -7 17 -17 17
-21 0 -5 -11 2 -25 15 -14 13 -25 18 -25 11z m120 -62 c0 -12 -7 -19 -20 -19
-22 0 -29 35 -7 43 18 6 27 -2 27 -24z m210 2 c0 -22 -25 -45 -40 -36 -11 7
-14 38 -3 48 14 15 43 7 43 -12z"/>
<path d="M5020 8464 c0 -21 17 -25 22 -6 3 11 0 19 -8 19 -8 0 -14 -6 -14 -13z"/>
<path d="M5077 8463 c-4 -3 -7 -13 -7 -21 0 -12 3 -12 15 -2 8 7 15 16 15 21
0 11 -14 12 -23 2z"/>
<path d="M5002 8430 c0 -14 2 -19 5 -12 2 6 2 18 0 25 -3 6 -5 1 -5 -13z"/>
<path d="M4630 8411 c0 -5 5 -13 10 -16 6 -3 10 -2 10 4 0 5 -4 13 -10 16 -5
3 -10 2 -10 -4z"/>
<path d="M4987 8373 c-5 -27 1 -29 19 -5 17 22 17 29 0 29 -8 0 -16 -11 -19
-24z"/>
<path d="M4647 8359 c4 -13 8 -18 11 -10 2 7 -1 18 -6 23 -8 8 -9 4 -5 -13z"/>
<path d="M5007 8350 c-8 -29 -5 -33 23 -28 22 3 22 3 3 27 l-20 24 -6 -23z
m23 -10 c0 -5 -5 -10 -11 -10 -5 0 -7 5 -4 10 3 6 8 10 11 10 2 0 4 -4 4 -10z"/>
<path d="M4960 8330 c0 -5 5 -10 10 -10 6 0 10 5 10 10 0 6 -4 10 -10 10 -5 0
-10 -4 -10 -10z"/>
<path d="M3658 8303 c7 -3 16 -2 19 1 4 3 -2 6 -13 5 -11 0 -14 -3 -6 -6z"/>
<path d="M3584 8278 c-9 -13 -3 -15 31 -8 l30 6 -28 6 c-15 3 -30 1 -33 -4z"/>
<path d="M5114 8086 c-3 -9 -9 -14 -13 -11 -4 2 -8 -3 -8 -11 0 -12 5 -11 21
5 11 11 17 23 13 27 -4 4 -9 -1 -13 -10z"/>
<path d="M3896 7826 c-23 -36 -20 -44 5 -12 12 15 19 29 16 32 -2 2 -12 -7
-21 -20z"/>
<path d="M3877 7693 c-4 -3 -7 -11 -7 -17 0 -6 5 -5 12 2 6 6 9 14 7 17 -3 3
-9 2 -12 -2z"/>
<path d="M6481 7630 c-6 -20 -7 -30 0 -30 6 0 7 -5 3 -12 -4 -7 -3 -8 4 -4 18
11 35 -3 23 -18 -8 -9 -5 -18 9 -31 16 -15 22 -15 35 -5 8 7 15 20 15 29 -1
13 -3 13 -15 -3 -8 -11 -18 -16 -22 -11 -5 4 -2 10 5 12 6 3 12 11 12 19 0 8
-6 14 -12 14 -9 0 -8 4 2 10 10 7 11 10 2 10 -7 0 -18 11 -24 25 -15 33 -24
32 -37 -5z"/>
<path d="M3588 7003 c6 -2 18 -2 25 0 6 3 1 5 -13 5 -14 0 -19 -2 -12 -5z"/>
<path d="M6658 6897 c-26 -12 -50 -28 -53 -35 -3 -8 -2 -12 2 -10 5 3 32 15
61 28 28 13 52 28 52 32 0 12 -11 10 -62 -15z"/>
<path d="M6739 6887 c-51 -31 -109 -80 -84 -72 11 4 36 8 55 10 20 1 46 7 57
14 12 6 32 11 45 12 18 1 15 3 -12 12 -45 13 -45 14 -30 32 16 19 13 18 -31
-8z"/>
<path d="M6798 6878 c6 -6 18 -8 28 -6 14 3 12 5 -9 10 -19 3 -25 2 -19 -4z"/>
<path d="M6705 6360 c10 -11 20 -20 23 -20 3 0 -3 9 -13 20 -10 11 -20 20 -23
20 -3 0 3 -9 13 -20z"/>
<path d="M6741 6329 c-1 -8 6 -24 15 -35 15 -19 15 -19 6 1 -5 11 -12 27 -15
35 -5 13 -6 13 -6 -1z"/>
<path d="M6870 6207 c0 -10 8 -17 18 -17 9 0 13 4 7 8 -5 4 -13 11 -17 16 -5
5 -8 2 -8 -7z"/>
<path d="M6295 8040 c28 -12 37 -12 30 0 -3 6 -16 10 -28 9 -21 0 -21 -1 -2
-9z"/>
<path d="M3185 6480 c-3 -6 1 -7 9 -4 18 7 21 14 7 14 -6 0 -13 -4 -16 -10z"/>
<path d="M3887 5783 c-9 -2 -15 -9 -12 -14 3 -5 14 -3 25 3 16 10 22 9 33 -5
12 -17 13 -17 13 2 0 21 -17 25 -59 14z"/>
<path d="M1420 2441 c21 -18 92 -56 125 -70 30 -11 -19 20 -80 53 -38 20 -59
28 -45 17z"/>
<path d="M1567 2333 c6 -41 18 -61 30 -50 4 4 1 13 -5 19 -7 7 -12 22 -12 34
0 13 -4 25 -9 29 -6 3 -8 -10 -4 -32z"/>
<path d="M1436 1489 c4 -7 44 0 44 7 0 2 -11 3 -24 2 -14 -1 -23 -5 -20 -9z"/>
<path d="M5429 5823 c-13 -16 -12 -17 4 -4 9 7 17 15 17 17 0 8 -8 3 -21 -13z"/>
<path d="M5374 5768 l-29 -33 33 29 c30 28 37 36 29 36 -2 0 -16 -15 -33 -32z"/>
<path d="M4580 5720 c0 -5 5 -10 11 -10 5 0 7 5 4 10 -3 6 -8 10 -11 10 -2 0
-4 -4 -4 -10z"/>
<path d="M4820 5648 c0 -15 24 -58 32 -58 8 0 1 17 -22 50 -5 8 -10 12 -10 8z"/>
<path d="M3740 5560 c-9 -6 -10 -10 -3 -10 6 0 15 5 18 10 8 12 4 12 -15 0z"/>
<path d="M7272 4800 c0 -14 2 -19 5 -12 2 6 2 18 0 25 -3 6 -5 1 -5 -13z"/>
<path d="M7301 4624 c0 -11 3 -14 6 -6 3 7 2 16 -1 19 -3 4 -6 -2 -5 -13z"/>
<path d="M6963 4081 c1 -15 4 -17 14 -9 17 14 16 28 -1 28 -8 0 -14 -9 -13
-19z"/>
<path d="M6915 4020 c-10 -11 -15 -20 -11 -20 4 0 16 9 28 20 12 11 17 20 11
20 -5 0 -18 -9 -28 -20z"/>
<path d="M6865 3970 c-12 -4 -26 -15 -33 -23 -11 -13 -10 -15 5 -11 22 6 58
32 52 38 -2 2 -13 0 -24 -4z"/>
<path d="M4323 4213 c9 -2 23 -2 30 0 6 3 -1 5 -18 5 -16 0 -22 -2 -12 -5z"/>
<path d="M6163 3115 c-66 -131 -70 -140 -53 -130 17 10 121 225 118 242 -2 8
-31 -42 -65 -112z"/>
<path d="M6075 2950 c-3 -5 -1 -10 4 -10 6 0 11 5 11 10 0 6 -2 10 -4 10 -3 0
-8 -4 -11 -10z"/>
<path d="M6017 2823 c-31 -62 -68 -124 -81 -140 -31 -37 -149 -234 -143 -239
5 -5 97 132 97 144 0 4 14 22 30 40 17 18 30 35 30 37 0 3 15 28 33 57 48 75
100 184 95 199 -2 7 -30 -37 -61 -98z"/>
<path d="M5716 2357 c-16 -18 -58 -70 -94 -115 -36 -46 -75 -88 -88 -94 -34
-16 -38 -36 -6 -31 48 8 58 13 43 22 -10 7 -7 15 16 37 16 16 55 64 88 108 33
43 65 81 72 83 14 5 18 23 6 23 -5 -1 -21 -15 -37 -33z"/>
<path d="M5399 2023 c-14 -16 -42 -51 -63 -80 -20 -29 -46 -55 -56 -58 -10 -3
-47 -1 -80 5 -34 6 -75 8 -92 5 -28 -7 -29 -5 -23 16 4 13 10 31 12 39 3 8 -4
0 -16 -17 -11 -18 -35 -39 -53 -47 -18 -7 -42 -21 -53 -30 -17 -14 -13 -13 25
2 42 16 50 17 124 2 l79 -16 -44 -38 c-40 -34 -37 -32 36 14 44 27 84 50 88
50 12 0 26 16 90 103 60 81 67 95 26 50z m-164 -156 c7 -6 -5 -7 -35 -3 -25 4
-49 12 -55 17 -7 7 5 8 35 3 25 -4 50 -11 55 -17z"/>
<path d="M5042 1733 c-34 -20 -60 -38 -58 -40 3 -3 112 60 124 72 13 12 -7 3
-66 -32z"/>
<path d="M3450 1070 c-20 -12 -5 -24 16 -12 9 5 12 12 7 15 -5 3 -15 2 -23 -3z"/>
<path d="M3000 929 c0 -5 5 -7 10 -4 6 3 10 8 10 11 0 2 -4 4 -10 4 -5 0 -10
-5 -10 -11z"/>
<path d="M2455 830 c-3 -5 -1 -10 4 -10 6 0 11 5 11 10 0 6 -2 10 -4 10 -3 0
-8 -4 -11 -10z"/>
<path d="M2256 4253 c-6 -14 -5 -15 5 -6 7 7 10 15 7 18 -3 3 -9 -2 -12 -12z"/>
<path d="M6625 3099 c-9 -17 -15 -33 -13 -35 3 -2 12 12 21 31 21 43 13 47 -8
4z"/>
<path d="M7031 2814 c0 -11 3 -14 6 -6 3 7 2 16 -1 19 -3 4 -6 -2 -5 -13z"/>
<path d="M7770 3183 c0 -5 7 -17 15 -27 15 -20 20 -10 9 18 -6 16 -24 22 -24
9z"/>
<path d="M2042 2907 c4 -23 11 -59 14 -79 4 -21 10 -35 15 -32 12 7 11 51 -1
59 -5 3 -10 16 -10 28 0 18 2 20 11 7 9 -12 10 -12 5 3 -3 10 -6 26 -7 35 0
14 -2 13 -9 -3 -7 -16 -9 -17 -9 -3 -1 9 -5 19 -10 22 -4 3 -4 -13 1 -37z"/>
<path d="M8530 2863 c0 -12 5 -25 10 -28 13 -8 13 15 0 35 -8 12 -10 11 -10
-7z"/>
<path d="M3370 2700 c0 -5 4 -10 9 -10 6 0 13 5 16 10 3 6 -1 10 -9 10 -9 0
-16 -4 -16 -10z"/>
<path d="M8470 2166 c-88 -22 -200 -45 -326 -67 -28 -5 -75 -19 -105 -32 -30
-13 -92 -34 -139 -46 -47 -12 -96 -26 -110 -32 -14 -5 -36 -11 -49 -14 -68
-13 -26 -19 144 -20 50 0 114 -4 143 -9 33 -5 52 -5 52 1 0 13 -120 25 -225
24 l-80 -1 70 19 c39 10 97 28 129 39 33 11 67 18 75 15 13 -4 13 -3 2 5 -15
10 121 7 142 -4 7 -3 3 2 -7 10 -11 9 -27 16 -35 17 -9 0 47 13 124 29 159 32
305 69 320 82 15 13 -24 8 -125 -16z m-373 -102 c-3 -3 -12 -4 -19 -1 -8 3 -5
6 6 6 11 1 17 -2 13 -5z"/>
<path d="M8387 2093 c18 -2 50 -2 70 0 21 2 7 4 -32 4 -38 0 -55 -2 -38 -4z"/>
<path d="M8285 1990 c-18 -8 -18 -9 5 -8 14 0 39 4 55 8 l30 8 -35 0 c-19 0
-44 -3 -55 -8z"/>
<path d="M7678 1893 c7 -3 16 -2 19 1 4 3 -2 6 -13 5 -11 0 -14 -3 -6 -6z"/>
<path d="M7980 1891 c0 -10 24 -21 48 -21 11 0 6 6 -12 15 -33 18 -36 18 -36
6z"/>
<path d="M7860 1649 c-42 -15 -99 -22 -240 -29 -195 -9 -238 -18 -356 -70 -36
-17 -75 -30 -87 -30 -16 0 -18 -3 -9 -12 10 -10 27 -5 80 21 124 62 177 72
397 80 180 6 204 9 243 29 39 21 53 33 35 31 -5 0 -33 -9 -63 -20z"/>
<path d="M6693 1583 c9 -2 25 -2 35 0 9 3 1 5 -18 5 -19 0 -27 -2 -17 -5z"/>
<path d="M6505 1569 c-13 -6 12 -7 70 -3 50 3 92 8 94 10 9 8 -145 2 -164 -7z"/>
<path d="M7673 1573 c-18 -2 -33 -8 -33 -13 0 -7 79 6 89 16 4 4 1 4 -56 -3z"/>
<path d="M6685 1549 c22 -4 54 -8 70 -7 26 0 25 1 -10 9 -22 4 -53 8 -70 7
-26 0 -25 -1 10 -9z"/>
<path d="M7048 1533 c7 -3 16 -2 19 1 4 3 -2 6 -13 5 -11 0 -14 -3 -6 -6z"/>
<path d="M7760 1520 c166 -23 391 -40 526 -39 127 1 140 3 89 10 -33 5 -127 9
-210 9 -82 0 -168 5 -190 10 -22 5 -94 12 -160 14 -100 4 -109 4 -55 -4z"/>
<path d="M8540 1490 c57 -5 116 -11 130 -15 22 -5 23 -4 6 6 -10 6 -69 13
-130 15 l-111 3 105 -9z"/>
<path d="M8999 1533 c-141 -104 -309 -239 -309 -249 0 -2 24 15 53 38 146 118
213 169 306 237 91 66 109 81 98 81 -2 0 -69 -48 -148 -107z"/>
<path d="M8328 1293 c7 -3 16 -2 19 1 4 3 -2 6 -13 5 -11 0 -14 -3 -6 -6z"/>
<path d="M8368 1293 c6 -2 18 -2 25 0 6 3 1 5 -13 5 -14 0 -19 -2 -12 -5z"/>
<path d="M1015 1390 c27 -12 43 -12 25 0 -8 5 -22 9 -30 9 -10 0 -8 -3 5 -9z"/>
<path d="M1907 1034 c-5 -5 -236 -44 -266 -44 -8 0 -12 -2 -9 -5 3 -3 61 1
129 10 68 8 147 15 176 15 51 0 69 12 37 24 -20 8 -59 8 -67 0z"/>
<path d="M7068 1333 c7 -3 16 -2 19 1 4 3 -2 6 -13 5 -11 0 -14 -3 -6 -6z"/>
<path d="M6950 1305 c-19 -7 -28 -13 -20 -13 8 0 31 6 50 13 19 7 28 13 20 13
-8 0 -31 -6 -50 -13z"/>
<path d="M7393 1283 c9 -2 25 -2 35 0 9 3 1 5 -18 5 -19 0 -27 -2 -17 -5z"/>
<path d="M3889 1073 c-13 -16 -12 -17 4 -4 16 13 21 21 13 21 -2 0 -10 -8 -17
-17z"/>
<path d="M4087 954 c-3 -4 -21 -10 -39 -15 -27 -7 -22 -8 24 -5 69 5 114 25
57 26 -20 0 -38 -3 -42 -6z"/>
<path d="M5510 770 c-8 -5 -31 -16 -50 -25 -45 -19 -92 -54 -154 -112 l-50
-46 -59 32 c-32 18 -56 27 -52 21 3 -6 32 -23 63 -39 l57 -29 62 58 c57 54
168 125 218 142 20 6 20 6 0 6 -11 1 -27 -3 -35 -8z"/>
<path d="M6089 1224 c-72 -30 -144 -39 -214 -24 -78 16 -89 4 -44 -48 19 -22
49 -58 67 -80 20 -26 57 -53 98 -73 61 -30 74 -33 192 -37 151 -5 192 6 218
62 23 46 14 63 -38 71 -69 11 -107 34 -149 90 -22 29 -48 55 -58 58 -10 2 -42
-6 -72 -19z m106 -85 c54 -55 75 -69 120 -79 17 -3 31 -13 33 -23 3 -14 -5
-17 -45 -17 -71 0 -210 18 -271 36 -35 10 -68 29 -95 54 l-42 39 65 1 c36 1
87 9 115 19 28 10 55 19 60 20 6 0 33 -22 60 -50z"/>
</g>
</svg>
